<?xml version="1.0" encoding="UTF-8"?>
<svg id="Layer_2" data-name="Layer 2" xmlns="http://www.w3.org/2000/svg" viewBox="0 0 541.09 214.79">
  <defs>
    <style>
      .cls-1 {
        fill: #be1e2d;
      }

      .cls-2 {
        fill: #231f20;
      }
    </style>
  </defs>
  <g id="Layer_1-2" data-name="Layer 1">
    <g>
      <g>
        <path class="cls-1" d="M76.99,138.57c-.53,0-1.28,.32-2.26,.96-.97,.64-1.8,.96-2.49,.96-1.47,0-2.21-1.38-2.21-4.14v-32.9c0-1.41,.07-2.89,.21-4.44s.21-2.48,.21-2.8c0-1.35-.61-2.02-1.83-2.02-.44,0-1.43,.34-2.96,1.01-1.54,.67-3.59,1.36-6.18,2.07-2.58,.71-5.32,1.09-8.2,1.15-1.6,.09-2.4,.8-2.4,2.12,0,.59,.16,1.11,.49,1.55,.33,.44,.78,.66,1.34,.66,.5,0,1.32-.09,2.44-.28,1.13-.19,1.91-.28,2.35-.28,.85,0,1.39,.24,1.65,.71,.25,.47,.38,1.39,.38,2.77v29.04c-3.89,4.45-8.35,6.67-13.39,6.67-2.85,0-5.04-.96-6.56-2.89-1.52-1.93-2.28-4.75-2.28-8.48v-26.55c0-1.41,.06-2.89,.19-4.44,.12-1.55,.19-2.48,.19-2.8,0-1.35-.61-2.02-1.83-2.02-.47,0-1.48,.34-3.03,1.01s-3.56,1.36-6.04,2.07c-2.46,.7-6.99,1.3-9.6,1.15-1.64-.1-3.19-.28-4.69-.1-2.96,.35-5.36,1.45-7.21,3.29-1.59,1.59-2.35,3.27-2.28,5.05,.06,1.78,.74,3.32,2.02,4.6,1.17,1.17,2.63,1.81,4.37,1.92,1.74,.11,3.26-.49,4.57-1.79,.85-.85,1.39-1.77,1.61-2.76,.23-.99,.44-1.96,.62-2.9,.19-.95,.62-1.79,1.35-2.49,.45-.44,.89-.76,1.7-.9,1.68-.29,3.1-.16,3.54-.16,.85,0,1.39,.24,1.64,.71,.25,.47,.38,1.39,.38,2.77v26.83c0,2.91,.42,5.48,1.25,7.71,.83,2.22,1.96,3.99,3.38,5.31,1.43,1.32,3.03,2.3,4.82,2.96,1.79,.66,3.73,.99,5.83,.99,4.39,0,8.29-1.1,11.7-3.29,3.41-2.19,6.19-4.89,8.32-8.08l-.56,9.26c-.03,.63,.14,1.13,.52,1.53,.38,.39,.85,.59,1.41,.59,.5,0,1.11-.16,1.83-.47,2.1-1.35,4.63-2.57,7.59-3.67,2.96-1.1,5.76-1.89,8.39-2.4,1.03-.16,1.55-.85,1.55-2.07,0-.59-.17-1.13-.52-1.6-.35-.47-.78-.7-1.32-.7Z"/>
        <path class="cls-2" d="M59.46,150.47c-.83,0-1.57-.31-2.13-.89-.57-.59-.84-1.38-.79-2.27l.36-5.97c-1.85,2.16-4.06,4.07-6.58,5.69-3.56,2.29-7.68,3.45-12.24,3.45-2.21,0-4.28-.35-6.17-1.05-1.9-.7-3.63-1.76-5.15-3.16-1.54-1.42-2.76-3.33-3.64-5.7-.87-2.33-1.31-5.04-1.31-8.06v-26.83c0-1.69-.2-2.19-.26-2.3-.03-.06-.23-.18-.76-.18-.09,0-.21,0-.37-.01-.6-.02-1.73-.07-3,.16-.54,.1-.8,.27-1.17,.63-.57,.55-.92,1.19-1.07,1.97-.19,.96-.4,1.93-.63,2.93-.27,1.17-.9,2.26-1.88,3.24-1.51,1.51-3.31,2.21-5.33,2.08-1.98-.12-3.67-.87-5.01-2.21C.86,110.53,.08,108.75,0,106.72c-.08-2.06,.79-4.01,2.58-5.8,2-2,4.63-3.21,7.8-3.58,1.29-.15,2.56-.06,3.9,.03,.32,.02,.64,.04,.96,.06,2.54,.14,6.99-.46,9.27-1.11,2.43-.69,4.42-1.37,5.91-2.02,2.23-.97,3-1.09,3.43-1.09,1.77,0,2.83,1.13,2.83,3.02,0,.22-.02,.75-.19,2.88-.12,1.52-.18,2.98-.18,4.36v26.55c0,3.48,.69,6.13,2.06,7.86,1.33,1.69,3.22,2.51,5.77,2.51,4.68,0,8.74-1.98,12.39-6.05v-28.66c0-1.69-.2-2.19-.26-2.3-.03-.06-.23-.18-.76-.18-.26,0-.86,.05-2.18,.27-1.19,.2-2.05,.29-2.61,.29-.88,0-1.62-.37-2.14-1.06-.46-.61-.69-1.34-.69-2.15,0-.88,.33-2.94,3.34-3.11,2.82-.06,5.5-.44,8-1.12,2.53-.69,4.56-1.37,6.04-2.02,2.2-.97,2.93-1.1,3.36-1.1,1.77,0,2.83,1.13,2.83,3.02,0,.22-.02,.76-.22,2.89-.14,1.51-.21,2.98-.21,4.35v32.9c0,1.43,.21,3.14,1.21,3.14,.33,0,.94-.14,1.94-.8,1.17-.77,2.06-1.13,2.81-1.13,.85,0,1.59,.38,2.12,1.11,.47,.65,.71,1.38,.71,2.19,0,1.71-.88,2.83-2.4,3.06-2.53,.48-5.3,1.27-8.19,2.35-2.88,1.07-5.37,2.27-7.4,3.57l-.14,.08c-.86,.37-1.59,.55-2.23,.55Zm-.14-16.01l-.79,12.96c-.02,.44,.12,.65,.24,.77,.19,.19,.4,.28,.69,.28,.24,0,.67-.06,1.36-.36,2.13-1.36,4.73-2.61,7.71-3.72,3-1.11,5.88-1.93,8.55-2.44,.35-.05,.74-.11,.74-1.08,0-.38-.11-.71-.32-1.01-.18-.24-.33-.29-.51-.29-.12,0-.58,.06-1.7,.8-1.15,.76-2.14,1.13-3.04,1.13-1.46,0-3.21-.89-3.21-5.14v-32.9c0-1.44,.07-2.96,.22-4.53,.18-1.98,.21-2.55,.21-2.71,0-.95-.31-1.02-.83-1.02-.08,0-.58,.06-2.56,.93-1.57,.69-3.7,1.4-6.32,2.12-2.65,.72-5.49,1.12-8.44,1.19-1.42,.08-1.42,.68-1.42,1.12,0,.38,.1,.69,.29,.95,.14,.18,.29,.26,.54,.26,.31,0,.95-.05,2.28-.27,1.19-.2,2.01-.3,2.51-.3,1.54,0,2.23,.67,2.53,1.23,.34,.63,.49,1.66,.49,3.24v29.42l-.25,.28c-4.07,4.65-8.83,7.02-14.15,7.02-3.16,0-5.63-1.1-7.34-3.27-1.65-2.1-2.49-5.16-2.49-9.1v-26.55c0-1.43,.06-2.95,.19-4.52,.15-1.89,.18-2.52,.18-2.72,0-.95-.31-1.02-.83-1.02-.05,0-.56,.03-2.63,.93-1.58,.69-3.65,1.4-6.16,2.11-2.44,.69-7.12,1.35-9.93,1.18-.33-.02-.66-.04-.98-.06-1.25-.09-2.42-.17-3.53-.04-2.71,.32-4.94,1.33-6.62,3.01-1.39,1.39-2.05,2.8-1.99,4.31,.06,1.53,.62,2.82,1.73,3.93,1,1,2.22,1.54,3.73,1.63,1.45,.09,2.69-.4,3.8-1.5,.71-.71,1.16-1.47,1.35-2.27,.23-.98,.43-1.94,.61-2.87,.23-1.18,.78-2.19,1.64-3.02,.59-.57,1.19-.99,2.22-1.17,1.48-.26,2.75-.21,3.42-.19,.12,0,.22,0,.29,0,1.54,0,2.23,.67,2.53,1.23,.34,.63,.49,1.66,.49,3.24v26.83c0,2.78,.4,5.26,1.18,7.36,.77,2.06,1.82,3.72,3.12,4.93,1.32,1.22,2.83,2.15,4.48,2.76,1.67,.61,3.51,.93,5.48,.93,4.17,0,7.93-1.05,11.16-3.13,3.28-2.11,5.98-4.73,8.03-7.8l2.06-3.08Z"/>
      </g>
      <g>
        <path class="cls-1" d="M188.92,194.17c-.44-.33-.99-.49-1.64-.49-.85,0-1.46,.41-1.83,1.22-1.44,2.91-3.51,5.36-6.2,7.33-2.69,1.97-5.86,2.96-9.49,2.96-5.04,0-9-2.15-11.87-6.46-2.87-4.31-4.3-9.72-4.3-16.24,0-5.61,1.06-10.21,3.2-13.82,2.13-3.6,5.2-5.4,9.21-5.4,1.69,0,3.08,.46,4.16,1.39,1.08,.92,1.9,2.04,2.47,3.34s1.12,2.6,1.67,3.9c.55,1.3,1.34,2.41,2.37,3.34,1.03,.92,2.37,1.39,3.99,1.39s3.16-.58,4.39-1.74c1.24-1.16,1.86-2.63,1.86-4.42,0-3.04-1.72-5.79-5.17-8.25-3.45-2.46-8.02-3.69-13.72-3.69-3.7,0-7.17,.65-10.41,1.95-3.24,1.3-6.06,3.15-8.46,5.55-2.4,2.4-4.29,5.42-5.69,9.07-1.39,3.65-2.09,7.7-2.09,12.15,0,8.21,2.16,14.69,6.49,19.43,4.32,4.75,9.87,7.12,16.64,7.12,10.53,0,18.67-5.45,24.44-16.35,.44-.88,.66-1.52,.66-1.93,0-.56-.22-1.01-.66-1.34Z"/>
        <path class="cls-2" d="M164.48,214.79c-7.03,0-12.87-2.5-17.38-7.45-4.48-4.92-6.75-11.68-6.75-20.11,0-4.55,.73-8.76,2.16-12.51,1.44-3.76,3.43-6.93,5.91-9.42,2.48-2.48,5.44-4.42,8.79-5.77,3.35-1.34,6.97-2.02,10.78-2.02,5.89,0,10.7,1.3,14.3,3.88,3.71,2.65,5.59,5.7,5.59,9.06,0,2.06-.73,3.8-2.17,5.15-1.42,1.33-3.13,2.01-5.08,2.01s-3.44-.55-4.66-1.64c-1.14-1.02-2.03-2.26-2.63-3.69-.55-1.3-1.1-2.59-1.66-3.89-.5-1.15-1.24-2.15-2.2-2.98-.9-.77-2.05-1.15-3.51-1.15-3.66,0-6.4,1.61-8.35,4.91-2.03,3.43-3.06,7.91-3.06,13.31,0,6.29,1.39,11.56,4.13,15.68,2.69,4.05,6.3,6.02,11.03,6.02,3.4,0,6.39-.93,8.9-2.77,2.55-1.87,4.53-4.21,5.9-6.97,.53-1.14,1.5-1.78,2.73-1.78,.88,0,1.63,.23,2.24,.69h0c.69,.52,1.06,1.26,1.06,2.14,0,.58-.24,1.33-.76,2.37-5.93,11.23-14.45,16.91-25.33,16.91Zm3.52-55.27c-3.55,0-6.93,.63-10.04,1.88-3.1,1.24-5.84,3.04-8.12,5.32-2.29,2.29-4.12,5.22-5.46,8.72-1.34,3.52-2.03,7.49-2.03,11.79,0,7.91,2.09,14.22,6.22,18.76,4.11,4.51,9.45,6.79,15.9,6.79,10.22,0,17.92-5.18,23.55-15.82,.52-1.03,.54-1.4,.54-1.46,0-.25-.07-.4-.26-.54-.26-.2-.6-.29-1.04-.29-.38,0-.68,.11-.93,.64-1.52,3.07-3.71,5.66-6.52,7.72-2.86,2.09-6.25,3.15-10.08,3.15-5.38,0-9.65-2.32-12.7-6.91-2.96-4.46-4.47-10.1-4.47-16.79,0-5.76,1.12-10.58,3.33-14.33,2.31-3.91,5.7-5.9,10.07-5.9,1.93,0,3.55,.55,4.81,1.63,1.19,1.02,2.11,2.26,2.73,3.7,.57,1.3,1.12,2.61,1.67,3.91,.49,1.16,1.2,2.16,2.12,2.98,.85,.76,1.94,1.13,3.33,1.13s2.66-.48,3.71-1.47c1.04-.97,1.54-2.18,1.54-3.69,0-2.72-1.55-5.15-4.75-7.43-3.26-2.32-7.68-3.5-13.14-3.5Z"/>
      </g>
      <g>
        <path class="cls-1" d="M218.6,158.52c-5.04,0-9.62,1.11-13.72,3.34-4.1,2.22-7.4,5.5-9.89,9.82-2.49,4.32-3.74,9.31-3.74,14.94,0,8.12,2.47,14.67,7.4,19.67s11.29,7.5,19.06,7.5c3.79,0,7.35-.66,10.67-1.97,3.32-1.32,6.23-3.16,8.72-5.52s4.46-5.33,5.9-8.91c1.44-3.57,2.16-7.5,2.16-11.79,0-8.08-2.48-14.62-7.43-19.6s-11.33-7.47-19.13-7.47Zm10.27,44.86c-2.21,3.78-5.44,5.66-9.7,5.66-3.2,0-5.94-1.13-8.25-3.38s-4-5.24-5.1-8.95c-1.1-3.71-1.64-7.93-1.64-12.67,0-6.36,1.11-11.43,3.34-15.2,2.22-3.78,5.44-5.66,9.63-5.66,3.2,0,5.95,1.14,8.27,3.41,2.32,2.27,4.03,5.26,5.12,8.98,1.1,3.71,1.65,7.92,1.65,12.62,0,6.36-1.1,11.43-3.31,15.2Z"/>
        <path class="cls-2" d="M217.71,214.79c-8.01,0-14.66-2.62-19.77-7.79-5.1-5.17-7.69-12.02-7.69-20.37,0-5.79,1.3-10.99,3.87-15.44,2.57-4.47,6.03-7.9,10.28-10.2,4.23-2.29,9.01-3.46,14.2-3.46,8.04,0,14.71,2.61,19.84,7.77,5.12,5.15,7.72,11.98,7.72,20.3,0,4.4-.75,8.49-2.23,12.17-1.49,3.69-3.55,6.8-6.14,9.26-2.57,2.44-5.61,4.37-9.04,5.73-3.42,1.36-7.14,2.04-11.04,2.04Zm.89-55.27c-4.85,0-9.31,1.08-13.25,3.22-3.92,2.12-7.12,5.3-9.5,9.44-2.39,4.15-3.6,9.01-3.6,14.45,0,7.8,2.39,14.19,7.11,18.97,4.72,4.78,10.89,7.2,18.34,7.2,3.65,0,7.11-.64,10.3-1.9,3.19-1.26,6.01-3.05,8.4-5.32,2.37-2.25,4.28-5.13,5.66-8.56,1.39-3.44,2.09-7.28,2.09-11.42,0-7.77-2.4-14.13-7.13-18.89-4.73-4.76-10.93-7.18-18.42-7.18Zm.56,50.52c-3.45,0-6.46-1.23-8.95-3.67-2.42-2.37-4.22-5.52-5.36-9.38-1.12-3.79-1.69-8.14-1.69-12.95,0-6.51,1.17-11.8,3.48-15.71,2.41-4.08,5.94-6.16,10.5-6.16,3.45,0,6.47,1.24,8.97,3.69,2.43,2.38,4.24,5.55,5.38,9.41,1.12,3.79,1.69,8.13,1.69,12.9,0,6.51-1.16,11.79-3.45,15.71h0c-2.39,4.09-5.95,6.16-10.57,6.16Zm-2.02-45.87c-3.85,0-6.72,1.69-8.77,5.17-2.12,3.6-3.2,8.55-3.2,14.7,0,4.61,.54,8.78,1.6,12.38,1.04,3.53,2.67,6.4,4.84,8.52,2.13,2.08,4.6,3.1,7.55,3.1,3.91,0,6.81-1.69,8.84-5.17h0c2.11-3.6,3.18-8.55,3.18-14.7,0-4.58-.54-8.73-1.6-12.33-1.04-3.53-2.68-6.4-4.86-8.55-2.14-2.1-4.62-3.12-7.57-3.12Z"/>
      </g>
      <g>
        <path class="cls-1" d="M407.83,208.29c-.44,0-1.02,.09-1.74,.28-.72,.19-1.3,.28-1.74,.28-1.88,0-2.82-1.69-2.82-5.08v-28.29c0-5.64-1.45-9.88-4.35-12.71-2.9-2.83-6.48-4.25-10.74-4.25-3.73,0-7.33,1.07-10.81,3.2-3.48,2.13-6.3,4.76-8.46,7.89-.91-3.73-2.72-6.51-5.43-8.34-2.71-1.83-5.9-2.75-9.56-2.75s-7.14,1.05-10.41,3.15c-3.19,2.05-6.23,4.97-8.36,8-.68-2.84-1.92-5.14-3.72-6.9-2.9-2.83-6.48-4.25-10.74-4.25-3.73,0-7.33,1.07-10.81,3.2-3.48,2.13-6.3,4.76-8.46,7.89-.91-3.73-2.72-6.51-5.43-8.34-2.71-1.83-5.9-2.75-9.56-2.75s-7.14,1.05-10.41,3.15c-3.27,2.1-5.99,4.72-8.15,7.85l.56-8.88c.09-1.41-.55-2.12-1.93-2.12-.41,0-1.08,.27-2.02,.8-1.94,1.44-4.48,2.88-7.61,4.32-3.13,1.44-5.89,2.55-8.27,3.34-.91,.19-1.36,.8-1.36,1.83,0,.6,.18,1.14,.54,1.62,.36,.49,.82,.73,1.39,.73,.38,0,1.1-.31,2.16-.92,1.06-.61,1.93-.92,2.58-.92,1.28,0,1.93,1.14,1.93,3.43v31.02c0,3.38-.97,5.08-2.91,5.08-.44,0-1-.09-1.69-.28-.69-.19-1.28-.28-1.79-.28-.56,0-1.03,.2-1.39,.61-.36,.41-.54,.91-.54,1.5,0,.63,.22,1.15,.66,1.57,.44,.42,1.06,.63,1.88,.63,.56,0,2.16-.06,4.79-.19s5.04-.19,7.24-.19,4.59,.06,7.19,.19c2.6,.12,4.18,.19,4.75,.19,.81,0,1.42-.2,1.81-.61,.39-.41,.59-.94,.59-1.6,0-.59-.16-1.1-.49-1.5-.33-.41-.78-.61-1.34-.61-.5,0-1.1,.09-1.79,.28-.69,.19-1.25,.28-1.69,.28-1.85,0-2.77-1.69-2.77-5.08v-30.59c1.88-2.16,3.87-3.81,5.97-4.96,2.1-1.14,4.09-1.71,5.97-1.71,3.04,0,5.33,.96,6.88,2.89,1.55,1.93,2.33,4.75,2.33,8.48v25.89c0,3.38-.92,5.08-2.77,5.08-.44,0-1-.09-1.69-.28-.69-.19-1.29-.28-1.79-.28-.56,0-1.01,.2-1.34,.61-.33,.41-.49,.91-.49,1.5,0,.63,.2,1.15,.61,1.57s1.02,.63,1.83,.63c.56,0,2.15-.06,4.75-.19,2.6-.12,5-.19,7.19-.19s4.58,.06,7.17,.19c2.58,.12,4.16,.19,4.72,.19,.81,0,1.44-.21,1.88-.63,.44-.42,.66-.95,.66-1.57,0-.59-.18-1.1-.54-1.5-.36-.41-.82-.61-1.39-.61-.47,0-1.03,.09-1.69,.28-.66,.19-1.22,.28-1.69,.28-1.1,0-1.85-.45-2.26-1.34-.41-.89-.61-2.14-.61-3.74v-28.71c0-.81-.03-1.41-.09-1.79,1.91-2.16,4.01-3.83,6.3-5,2.29-1.17,4.42-1.76,6.39-1.76,2.76,0,4.89,.97,6.39,2.91,1.5,1.94,2.26,4.76,2.26,8.46v25.89c0,1.6-.2,2.84-.61,3.74-.41,.89-1.16,1.34-2.26,1.34-.47,0-1.03-.09-1.69-.28-.66-.19-1.22-.28-1.69-.28-.63,0-1.1,.2-1.43,.59-.33,.39-.49,.9-.49,1.53s.21,1.15,.63,1.57,1.04,.63,1.86,.63c.53,0,2.1-.06,4.7-.19,2.6-.12,4.98-.19,7.14-.19s4.65,.06,7.28,.19c2.63,.12,4.21,.19,4.75,.19,.85,0,1.5-.21,1.95-.63,.45-.42,.68-.95,.68-1.57,0-.59-.18-1.1-.54-1.5-.36-.41-.85-.61-1.48-.61-.44,0-1.02,.09-1.74,.28-.72,.19-1.3,.28-1.74,.28-1.88,0-2.82-1.69-2.82-5.08v-28.29c0-.76-.03-1.49-.08-2.2,1.84-2.05,4.1-3.97,6.1-5.06,2.1-1.14,4.09-1.71,5.97-1.71,3.04,0,5.33,.96,6.88,2.89,1.55,1.93,2.33,4.75,2.33,8.48v25.89c0,3.38-.92,5.08-2.77,5.08-.44,0-1-.09-1.69-.28-.69-.19-1.29-.28-1.79-.28-.56,0-1.01,.2-1.34,.61-.33,.41-.49,.91-.49,1.5,0,.63,.2,1.15,.61,1.57s1.02,.63,1.83,.63c.56,0,2.15-.06,4.75-.19,2.6-.12,5-.19,7.19-.19s4.58,.06,7.17,.19c2.58,.12,4.16,.19,4.72,.19,.81,0,1.44-.21,1.88-.63,.44-.42,.66-.95,.66-1.57,0-.59-.18-1.1-.54-1.5-.36-.41-.82-.61-1.39-.61-.47,0-1.03,.09-1.69,.28-.66,.19-1.22,.28-1.69,.28-1.1,0-1.85-.45-2.26-1.34-.41-.89-.61-2.14-.61-3.74v-28.71c0-.81-.03-1.41-.09-1.79,1.91-2.16,4.01-3.83,6.3-5,2.29-1.17,4.42-1.76,6.39-1.76,2.76,0,4.89,.97,6.39,2.91,1.5,1.94,2.26,4.76,2.26,8.46v25.89c0,1.6-.2,2.84-.61,3.74-.41,.89-1.16,1.34-2.26,1.34-.47,0-1.03-.09-1.69-.28-.66-.19-1.22-.28-1.69-.28-.63,0-1.1,.2-1.43,.59-.33,.39-.49,.9-.49,1.53s.21,1.15,.63,1.57,1.04,.63,1.86,.63c.53,0,2.1-.06,4.7-.19,2.6-.12,4.98-.19,7.14-.19s4.65,.06,7.28,.19c2.63,.12,4.21,.19,4.75,.19,.85,0,1.5-.21,1.95-.63,.45-.42,.68-.95,.68-1.57,0-.59-.18-1.1-.54-1.5-.36-.41-.85-.61-1.48-.61Z"/>
        <path class="cls-2" d="M407.21,213.62c-.55,0-2.07-.06-4.79-.19-2.6-.12-5.04-.19-7.24-.19s-4.52,.06-7.1,.19c-2.69,.13-4.2,.19-4.75,.19-1.09,0-1.95-.31-2.56-.93-.61-.61-.93-1.4-.93-2.28s.24-1.59,.73-2.17c.36-.43,1.04-.94,2.2-.94,.57,0,1.21,.1,1.97,.32,.57,.16,1.04,.24,1.42,.24,.88,0,1.18-.38,1.35-.75,.35-.76,.52-1.88,.52-3.32v-25.89c0-3.45-.69-6.09-2.05-7.85-1.32-1.7-3.15-2.53-5.6-2.53-1.8,0-3.8,.56-5.93,1.65-2.05,1.05-3.97,2.55-5.71,4.45,.03,.38,.05,.86,.05,1.45v28.71c0,1.45,.18,2.56,.52,3.32,.17,.37,.46,.75,1.35,.75,.38,0,.85-.08,1.42-.24,.76-.22,1.4-.32,1.97-.32,.85,0,1.58,.33,2.13,.95,.53,.6,.79,1.33,.79,2.17,0,.89-.33,1.69-.96,2.29-.63,.61-1.5,.92-2.57,.92-.58,0-2.1-.06-4.77-.19-2.56-.12-4.95-.19-7.12-.19s-4.57,.06-7.14,.19c-2.69,.13-4.22,.19-4.79,.19-1.09,0-1.95-.32-2.55-.94-.59-.61-.89-1.38-.89-2.27,0-.83,.24-1.54,.72-2.13,.52-.64,1.25-.98,2.12-.98,.6,0,1.27,.1,2.05,.32,.75,.2,1.19,.25,1.43,.25,1.18,0,1.77-1.37,1.77-4.08v-25.89c0-3.48-.71-6.12-2.1-7.86-1.36-1.69-3.36-2.52-6.11-2.52-1.7,0-3.55,.54-5.49,1.59-1.73,.94-3.78,2.63-5.55,4.54,.04,.63,.06,1.23,.06,1.84v28.29c0,4.08,1.37,4.08,1.82,4.08,.24,0,.7-.04,1.49-.25,.81-.21,1.46-.31,1.99-.31,.91,0,1.68,.33,2.23,.95,.53,.6,.79,1.33,.79,2.17,0,.9-.35,1.7-1,2.31-.64,.6-1.53,.9-2.63,.9-.55,0-2.07-.06-4.79-.19-2.6-.12-5.04-.19-7.24-.19s-4.52,.06-7.1,.19c-2.69,.13-4.2,.19-4.75,.19-1.09,0-1.95-.31-2.56-.93s-.93-1.4-.93-2.28,.24-1.59,.73-2.17c.36-.43,1.04-.94,2.2-.94,.57,0,1.21,.1,1.97,.32,.57,.16,1.04,.24,1.42,.24,.88,0,1.18-.38,1.35-.75,.35-.76,.52-1.88,.52-3.32v-25.89c0-3.45-.69-6.09-2.05-7.85-1.32-1.7-3.15-2.53-5.6-2.53-1.8,0-3.8,.56-5.93,1.65-2.05,1.05-3.97,2.55-5.71,4.45,.03,.38,.05,.86,.05,1.45v28.71c0,1.45,.18,2.56,.52,3.32,.17,.37,.46,.75,1.35,.75,.38,0,.85-.08,1.42-.24,.76-.22,1.4-.32,1.97-.32,.85,0,1.58,.33,2.13,.95,.53,.6,.79,1.33,.79,2.17,0,.89-.33,1.69-.96,2.29-.63,.61-1.5,.92-2.57,.92-.58,0-2.1-.06-4.77-.19-2.56-.12-4.95-.19-7.12-.19s-4.57,.06-7.14,.19c-2.69,.13-4.22,.19-4.79,.19-1.09,0-1.95-.32-2.55-.94-.59-.61-.89-1.38-.89-2.27,0-.83,.24-1.54,.72-2.13,.52-.64,1.25-.98,2.12-.98,.6,0,1.27,.1,2.05,.32,.75,.2,1.19,.25,1.43,.25,1.18,0,1.77-1.37,1.77-4.08v-25.89c0-3.48-.71-6.12-2.1-7.86-1.36-1.69-3.36-2.52-6.11-2.52-1.7,0-3.55,.54-5.49,1.59-1.89,1.03-3.73,2.53-5.45,4.46v30.22c0,2.7,.6,4.08,1.77,4.08,.24,0,.68-.04,1.43-.25,.78-.21,1.45-.32,2.05-.32,.86,0,1.6,.34,2.12,.98,.48,.59,.72,1.31,.72,2.13,0,.92-.29,1.69-.87,2.29-.59,.61-1.44,.92-2.53,.92-.58,0-2.1-.06-4.79-.19-2.57-.12-4.98-.19-7.14-.19s-4.59,.06-7.19,.19c-2.72,.13-4.26,.19-4.84,.19-1.08,0-1.94-.31-2.57-.92-.63-.61-.96-1.4-.96-2.29,0-.84,.27-1.57,.79-2.17,.55-.62,1.29-.95,2.14-.95,.6,0,1.27,.1,2.05,.32,.75,.2,1.19,.25,1.43,.25,.47,0,1.91,0,1.91-4.08v-31.02c0-1.61-.31-2.43-.93-2.43-.27,0-.9,.1-2.09,.78-1.61,.92-2.25,1.05-2.66,1.05-.88,0-1.64-.39-2.19-1.13-.49-.66-.74-1.4-.74-2.22,0-1.48,.76-2.5,2.1-2.8,2.32-.77,5.05-1.87,8.12-3.28,3.06-1.41,5.56-2.83,7.44-4.22l.1-.07c1.13-.64,1.91-.93,2.51-.93,.96,0,1.72,.28,2.23,.83,.52,.56,.76,1.35,.69,2.35l-.36,5.64c1.84-2.11,3.99-3.96,6.41-5.51,3.42-2.19,7.11-3.31,10.95-3.31s7.26,.98,10.12,2.92c2.41,1.63,4.17,3.97,5.26,6.98,2.05-2.54,4.58-4.74,7.55-6.56,3.62-2.22,7.43-3.34,11.33-3.34,4.51,0,8.36,1.53,11.44,4.54,1.49,1.46,2.64,3.29,3.41,5.44,2.09-2.57,4.72-4.94,7.43-6.67,3.42-2.19,7.11-3.31,10.95-3.31s7.26,.98,10.12,2.92c2.41,1.63,4.17,3.97,5.26,6.98,2.05-2.54,4.58-4.74,7.55-6.56,3.62-2.22,7.43-3.34,11.33-3.34,4.51,0,8.36,1.53,11.44,4.54,3.08,3.02,4.65,7.54,4.65,13.43v28.29c0,4.08,1.37,4.08,1.82,4.08,.24,0,.7-.04,1.49-.25,.81-.21,1.46-.31,1.99-.31,.91,0,1.68,.33,2.23,.95,.53,.6,.79,1.33,.79,2.17,0,.9-.35,1.7-1,2.31-.64,.6-1.53,.9-2.63,.9Zm-12.03-2.38c2.23,0,4.7,.06,7.33,.19,2.65,.13,4.19,.19,4.7,.19,.58,0,1.01-.12,1.27-.37,.25-.23,.36-.49,.36-.84s-.09-.62-.29-.84c-.11-.12-.3-.27-.73-.27-.24,0-.7,.04-1.49,.25-.81,.21-1.46,.31-1.99,.31-1.74,0-3.82-1.05-3.82-6.08v-28.29c0-5.33-1.36-9.37-4.05-12-2.73-2.67-6.01-3.97-10.04-3.97-3.52,0-6.98,1.03-10.29,3.05-3.34,2.05-6.09,4.61-8.16,7.61l-1.27,1.84-.53-2.17c-.84-3.46-2.53-6.07-5.02-7.75-2.53-1.71-5.56-2.58-9-2.58s-6.77,1.01-9.87,2.99c-3.05,1.96-6,4.78-8.08,7.74l-1.27,1.81-.52-2.15c-.64-2.64-1.79-4.8-3.45-6.42-2.73-2.67-6.01-3.97-10.04-3.97-3.52,0-6.98,1.03-10.29,3.05-3.34,2.05-6.09,4.61-8.16,7.61l-1.27,1.84-.53-2.17c-.84-3.46-2.53-6.07-5.02-7.75-2.53-1.71-5.56-2.58-9-2.58s-6.77,1.01-9.87,2.99c-3.15,2.02-5.79,4.57-7.87,7.57l-2.05,2.97,.79-12.48c.03-.41-.03-.72-.16-.85-.12-.13-.39-.2-.77-.2-.01,0-.36,.02-1.48,.64-1.98,1.46-4.59,2.94-7.74,4.39-3.15,1.45-5.97,2.59-8.38,3.38l-.11,.03c-.33,.07-.57,.17-.57,.85,0,.38,.11,.71,.34,1.02,.21,.29,.41,.32,.58,.32,.02,0,.4-.06,1.67-.78,1.23-.71,2.24-1.05,3.08-1.05,1.09,0,2.93,.58,2.93,4.43v31.02c0,5.02-2.13,6.08-3.91,6.08-.53,0-1.17-.1-1.96-.32-1-.27-1.74-.45-2.16,.03-.2,.22-.29,.49-.29,.84s.11,.62,.35,.85c.24,.24,.64,.35,1.19,.35s2.09-.06,4.75-.19c2.64-.12,5.09-.19,7.28-.19s4.63,.06,7.24,.19c2.59,.12,4.17,.19,4.7,.19,.36,0,.85-.05,1.09-.3,.13-.14,.31-.38,.31-.9,0-.37-.09-.65-.27-.88-.1-.12-.24-.24-.56-.24-.41,0-.92,.08-1.52,.25-.78,.21-1.42,.32-1.95,.32-1.72,0-3.77-1.05-3.77-6.08v-30.97l.25-.28c1.95-2.24,4.05-3.98,6.24-5.18,2.24-1.22,4.41-1.84,6.45-1.84,3.34,0,5.92,1.1,7.66,3.26,1.69,2.1,2.55,5.16,2.55,9.11v25.89c0,5.02-2.05,6.08-3.77,6.08-.53,0-1.17-.1-1.96-.32-.6-.16-1.11-.25-1.52-.25-.32,0-.46,.12-.56,.24-.18,.23-.27,.51-.27,.87s.1,.65,.33,.88c.21,.22,.58,.33,1.11,.33s2.08-.06,4.7-.19c2.6-.12,5.04-.19,7.24-.19s4.63,.06,7.21,.19c2.57,.12,4.14,.19,4.67,.19s.94-.12,1.19-.35c.24-.23,.35-.5,.35-.85s-.09-.62-.29-.84c-.4-.45-1.07-.31-2.05-.03-3.25,.93-4.61-.46-5.13-1.6-.47-1.03-.7-2.39-.7-4.15v-28.71c0-.94-.04-1.4-.08-1.62l-.08-.47,.31-.36c1.98-2.24,4.2-4,6.59-5.23,2.42-1.24,4.72-1.87,6.85-1.87,3.07,0,5.49,1.11,7.18,3.3,1.64,2.11,2.46,5.17,2.46,9.07v25.89c0,1.76-.23,3.11-.7,4.15-.52,1.14-1.88,2.53-5.13,1.6-.56-.16-1.04-.24-1.42-.24-.47,0-.62,.17-.67,.23-.17,.21-.26,.5-.26,.88,0,.36,.11,.63,.34,.87,.23,.23,.61,.34,1.15,.34,.5,0,2.07-.06,4.65-.19,2.6-.12,5.02-.19,7.19-.19s4.7,.06,7.33,.19c2.65,.13,4.19,.19,4.7,.19,.58,0,1.01-.12,1.27-.37,.25-.23,.36-.49,.36-.84s-.09-.62-.29-.84c-.11-.12-.3-.27-.73-.27-.24,0-.7,.04-1.49,.25-.81,.21-1.46,.31-1.99,.31-1.74,0-3.82-1.05-3.82-6.08v-28.29c0-.69-.03-1.39-.08-2.12l-.03-.42,.28-.32c2-2.24,4.32-4.16,6.37-5.27,2.24-1.22,4.41-1.84,6.45-1.84,3.34,0,5.92,1.1,7.66,3.26,1.69,2.1,2.55,5.16,2.55,9.11v25.89c0,5.02-2.05,6.08-3.77,6.08-.53,0-1.17-.1-1.96-.32-.6-.16-1.11-.25-1.52-.25-.32,0-.46,.12-.56,.24-.18,.23-.27,.51-.27,.87s.1,.65,.33,.88c.21,.22,.58,.33,1.11,.33s2.08-.06,4.7-.19c2.6-.12,5.04-.19,7.24-.19s4.63,.06,7.21,.19c2.57,.12,4.14,.19,4.67,.19s.94-.12,1.19-.35c.24-.23,.35-.5,.35-.85s-.09-.62-.29-.84c-.4-.45-1.07-.31-2.05-.03-3.25,.93-4.61-.46-5.13-1.6-.47-1.03-.7-2.39-.7-4.15v-28.71c0-.94-.04-1.4-.08-1.62l-.08-.47,.31-.36c1.98-2.24,4.2-4,6.59-5.23,2.42-1.24,4.72-1.87,6.85-1.87,3.07,0,5.49,1.11,7.18,3.3,1.64,2.11,2.46,5.17,2.46,9.07v25.89c0,1.76-.23,3.11-.7,4.15-.52,1.14-1.88,2.53-5.13,1.6-.56-.16-1.04-.24-1.42-.24-.47,0-.62,.17-.67,.23-.17,.21-.26,.5-.26,.88,0,.36,.11,.63,.34,.87,.23,.23,.61,.34,1.15,.34,.5,0,2.07-.06,4.65-.19,2.6-.12,5.02-.19,7.19-.19Z"/>
      </g>
      <g>
        <path class="cls-1" d="M435.67,158.52c-5.04,0-9.62,1.11-13.72,3.34-4.1,2.22-7.4,5.5-9.89,9.82-2.49,4.32-3.74,9.31-3.74,14.94,0,8.12,2.47,14.67,7.4,19.67s11.29,7.5,19.06,7.5c3.79,0,7.35-.66,10.67-1.97,3.32-1.32,6.23-3.16,8.72-5.52s4.46-5.33,5.9-8.91c1.44-3.57,2.16-7.5,2.16-11.79,0-8.08-2.48-14.62-7.43-19.6s-11.33-7.47-19.13-7.47Zm10.27,44.86c-2.21,3.78-5.44,5.66-9.7,5.66-3.2,0-5.94-1.13-8.25-3.38s-4-5.24-5.1-8.95c-1.1-3.71-1.64-7.93-1.64-12.67,0-6.36,1.11-11.43,3.34-15.2,2.22-3.78,5.44-5.66,9.63-5.66,3.2,0,5.95,1.14,8.27,3.41,2.32,2.27,4.03,5.26,5.12,8.98,1.1,3.71,1.65,7.92,1.65,12.62,0,6.36-1.1,11.43-3.31,15.2Z"/>
        <path class="cls-2" d="M434.77,214.79c-8.01,0-14.66-2.62-19.77-7.79-5.1-5.17-7.69-12.02-7.69-20.37,0-5.79,1.3-10.99,3.87-15.44,2.57-4.47,6.03-7.9,10.28-10.2,4.23-2.29,9.01-3.46,14.2-3.46,8.04,0,14.71,2.61,19.84,7.77,5.12,5.15,7.72,11.98,7.72,20.3,0,4.4-.75,8.49-2.23,12.17-1.49,3.69-3.55,6.8-6.14,9.26-2.57,2.44-5.61,4.37-9.04,5.73-3.42,1.36-7.14,2.04-11.04,2.04Zm.89-55.27c-4.85,0-9.31,1.08-13.25,3.22-3.92,2.12-7.12,5.3-9.5,9.44-2.39,4.15-3.6,9.01-3.6,14.45,0,7.8,2.39,14.19,7.11,18.97,4.72,4.78,10.89,7.2,18.34,7.2,3.65,0,7.11-.64,10.3-1.9,3.19-1.26,6.01-3.05,8.4-5.32,2.37-2.25,4.28-5.13,5.66-8.56,1.39-3.44,2.09-7.28,2.09-11.42,0-7.77-2.4-14.13-7.13-18.89-4.73-4.76-10.93-7.18-18.42-7.18Zm.56,50.52c-3.45,0-6.46-1.23-8.95-3.67-2.42-2.37-4.22-5.52-5.36-9.38-1.12-3.79-1.69-8.14-1.69-12.95,0-6.51,1.17-11.8,3.48-15.71,2.41-4.08,5.94-6.16,10.5-6.16,3.45,0,6.47,1.24,8.97,3.69,2.43,2.38,4.24,5.55,5.38,9.41,1.12,3.79,1.69,8.13,1.69,12.9,0,6.51-1.16,11.79-3.45,15.71h0c-2.39,4.09-5.95,6.16-10.57,6.16Zm-2.02-45.87c-3.85,0-6.72,1.69-8.77,5.17-2.12,3.6-3.2,8.55-3.2,14.7,0,4.61,.54,8.78,1.6,12.38,1.04,3.53,2.67,6.4,4.84,8.52,2.13,2.08,4.6,3.1,7.55,3.1,3.91,0,6.81-1.69,8.84-5.17h0c2.11-3.6,3.18-8.55,3.18-14.7,0-4.58-.54-8.73-1.6-12.33-1.04-3.53-2.68-6.4-4.86-8.55-2.14-2.1-4.62-3.12-7.57-3.12Z"/>
      </g>
      <g>
        <path class="cls-1" d="M533.7,196.92c-1.74-.11-3.26,.49-4.56,1.79-.85,.85-1.39,1.77-1.61,2.76-.23,.99-.43,1.96-.62,2.9-.19,.95-.62,1.79-1.35,2.49-.45,.44-.89,.76-1.7,.9-1.68,.29-3.1,.16-3.54,.16-.85,0-1.39-.24-1.64-.71-.21-.4-.33-1.15-.36-2.21v-29.52c0-5.67-1.49-9.92-4.46-12.74-2.98-2.82-6.78-4.23-11.42-4.23-3.92,0-7.56,1.08-10.93,3.24-3.37,2.16-6.13,4.87-8.29,8.13l.56-9.26c.09-1.41-.55-2.12-1.93-2.12-.41,0-1.08,.27-2.02,.8-1.94,1.44-4.48,2.88-7.61,4.32-3.13,1.44-5.89,2.55-8.27,3.34-.91,.19-1.36,.8-1.36,1.83,0,.6,.18,1.14,.54,1.62,.36,.49,.82,.73,1.39,.73,.38,0,1.1-.31,2.16-.92,1.06-.61,1.93-.92,2.58-.92,1.28,0,1.93,1.14,1.93,3.43v31.02c0,3.38-.97,5.08-2.91,5.08-.44,0-1-.09-1.69-.28-.69-.19-1.28-.28-1.79-.28-.56,0-1.03,.2-1.39,.61-.36,.41-.54,.91-.54,1.5,0,.63,.22,1.15,.66,1.57,.44,.42,1.06,.63,1.88,.63,.56,0,2.15-.06,4.77-.19,2.62-.12,5-.19,7.17-.19s4.68,.06,7.28,.19c2.6,.12,4.18,.19,4.75,.19,.81,0,1.45-.21,1.9-.63,.45-.42,.68-.95,.68-1.57,0-.59-.18-1.1-.54-1.5-.36-.41-.85-.61-1.48-.61-.44,0-1.02,.09-1.74,.28-.72,.19-1.3,.28-1.74,.28-1.85,0-2.77-1.69-2.77-5.08v-30.31c4.07-4.64,8.3-6.96,12.69-6.96,3.07,0,5.41,.97,7.03,2.91,1.61,1.94,2.42,4.76,2.42,8.46v25.89c0,3.38-.97,5.08-2.91,5.08-.44,0-.99-.09-1.67-.28-.67-.19-1.26-.28-1.76-.28-.56,0-1.03,.2-1.39,.61-.36,.41-.54,.91-.54,1.5,0,.63,.21,1.15,.63,1.57s1.04,.63,1.86,.63c.56,0,2.15-.06,4.77-.19,2.62-.12,5-.19,7.17-.19,1.88,0,3.88,0,6.05-.03,3.29-.04,5.59-.09,7.7-.17,1.64-.06,3.02,.12,4.52-.05,2.96-.35,5.73-1.65,7.58-3.5,1.59-1.59,2.35-3.27,2.28-5.05-.07-1.78-.74-3.32-2.02-4.6-1.17-1.17-2.63-1.81-4.37-1.92Z"/>
        <path class="cls-2" d="M500.02,213.62c-1.08,0-1.95-.31-2.56-.93-.61-.61-.93-1.4-.93-2.28s.27-1.57,.79-2.17c.55-.62,1.29-.95,2.14-.95,.6,0,1.26,.1,2.03,.32,.73,.2,1.16,.25,1.4,.25,.47,0,1.91,0,1.91-4.08v-25.89c0-3.44-.74-6.07-2.19-7.82-1.43-1.72-3.47-2.55-6.26-2.55-3.98,0-7.91,2.13-11.69,6.33v29.93c0,2.7,.6,4.08,1.77,4.08,.24,0,.7-.04,1.49-.25,.81-.21,1.46-.31,1.99-.31,.91,0,1.68,.33,2.23,.95,.53,.6,.79,1.33,.79,2.17,0,.9-.35,1.7-1,2.31-.64,.6-1.51,.9-2.58,.9-.58,0-2.1-.06-4.79-.19-2.57-.12-5.01-.19-7.24-.19s-4.53,.06-7.12,.19c-2.71,.13-4.24,.19-4.82,.19-1.08,0-1.94-.31-2.57-.92-.63-.61-.96-1.4-.96-2.29,0-.84,.27-1.57,.79-2.17,.55-.62,1.29-.95,2.14-.95,.6,0,1.27,.1,2.05,.32,.75,.2,1.19,.25,1.43,.25,.47,0,1.91,0,1.91-4.08v-31.02c0-1.61-.31-2.43-.93-2.43-.27,0-.9,.1-2.09,.78-1.61,.92-2.25,1.05-2.66,1.05-.88,0-1.64-.39-2.19-1.13-.49-.66-.74-1.4-.74-2.22,0-1.48,.76-2.5,2.1-2.8,2.32-.77,5.05-1.87,8.12-3.28,3.06-1.41,5.56-2.83,7.44-4.22l.1-.07c1.13-.64,1.91-.93,2.51-.93,.96,0,1.72,.28,2.23,.83,.52,.56,.76,1.35,.69,2.35l-.36,5.93c1.87-2.2,4.06-4.11,6.55-5.71,3.52-2.26,7.37-3.4,11.47-3.4,4.88,0,8.95,1.52,12.11,4.5,3.17,3,4.78,7.53,4.78,13.46v29.52c.04,1.29,.21,1.67,.24,1.74,.03,.06,.23,.18,.76,.18,.09,0,.21,0,.37,.01,.6,.02,1.73,.07,3-.16,.54-.1,.8-.27,1.17-.63,.57-.55,.92-1.19,1.07-1.97,.19-.96,.4-1.93,.63-2.93,.27-1.17,.9-2.26,1.88-3.24,1.51-1.51,3.3-2.21,5.33-2.08h0c1.98,.12,3.67,.87,5.01,2.21,1.46,1.46,2.24,3.23,2.31,5.27,.08,2.06-.79,4.01-2.58,5.8-2.04,2.04-5.01,3.41-8.17,3.78-.95,.11-1.87,.09-2.75,.07-.59-.01-1.2-.03-1.85,0-2.06,.08-4.38,.13-7.73,.17-2.18,.03-4.18,.03-6.07,.03-2.14,0-4.53,.06-7.12,.19-2.71,.13-4.24,.19-4.82,.19Zm-.56-4.32c-.28,0-.47,.08-.64,.27-.2,.22-.29,.49-.29,.84s.11,.63,.34,.87c.23,.23,.61,.34,1.15,.34s2.08-.06,4.72-.19c2.62-.12,5.05-.19,7.21-.19,1.88,0,3.87,0,6.04-.03,3.33-.04,5.63-.09,7.68-.17,.69-.03,1.34-.01,1.97,0,.85,.02,1.65,.04,2.46-.05,2.72-.32,5.26-1.49,6.99-3.21,1.39-1.39,2.05-2.8,1.99-4.31-.06-1.54-.62-2.82-1.73-3.93-1-1-2.22-1.54-3.73-1.63-1.45-.08-2.69,.4-3.8,1.5-.71,.71-1.16,1.48-1.35,2.27-.23,.98-.43,1.94-.61,2.87-.23,1.18-.78,2.19-1.64,3.02-.59,.57-1.19,.99-2.22,1.17-1.48,.26-2.75,.21-3.42,.19-.12,0-.22,0-.29,0-1.54,0-2.23-.67-2.53-1.23-.29-.54-.44-1.38-.48-2.65v-29.55c0-5.36-1.4-9.4-4.15-12.01-2.77-2.62-6.38-3.96-10.73-3.96-3.7,0-7.2,1.04-10.39,3.08-3.23,2.08-5.93,4.71-8,7.84l-2.06,3.1,.79-12.97c.03-.42-.03-.72-.16-.86-.12-.13-.39-.2-.77-.2-.01,0-.36,.02-1.48,.64-1.98,1.46-4.59,2.94-7.74,4.39-3.15,1.45-5.97,2.59-8.38,3.38l-.11,.03c-.33,.07-.57,.17-.57,.85,0,.38,.11,.71,.34,1.02,.21,.29,.41,.32,.58,.32,.02,0,.4-.06,1.67-.78,1.23-.71,2.24-1.05,3.08-1.05,1.09,0,2.93,.58,2.93,4.43v31.02c0,5.02-2.13,6.08-3.91,6.08-.53,0-1.17-.1-1.96-.32-1-.27-1.74-.45-2.16,.03-.2,.22-.29,.49-.29,.84s.11,.62,.35,.85c.24,.24,.64,.35,1.19,.35s2.08-.06,4.72-.19c2.62-.12,5.05-.19,7.21-.19s4.73,.06,7.33,.19c2.59,.12,4.17,.19,4.7,.19s.96-.12,1.22-.37c.25-.23,.36-.49,.36-.84s-.09-.62-.29-.84c-.11-.12-.3-.27-.73-.27-.24,0-.7,.04-1.49,.25-.81,.21-1.46,.31-1.99,.31-1.72,0-3.77-1.05-3.77-6.08v-30.69l.25-.28c4.25-4.84,8.77-7.29,13.44-7.29,3.37,0,5.99,1.1,7.79,3.27,1.76,2.12,2.65,5.18,2.65,9.1v25.89c0,5.02-2.13,6.08-3.91,6.08-.54,0-1.17-.1-1.94-.32-.58-.16-1.09-.24-1.49-.24Z"/>
      </g>
      <g>
        <path class="cls-1" d="M142.93,146.09c0-.59-.18-1.1-.54-1.5-.36-.41-.85-.61-1.48-.61-.47,0-1.05,.09-1.74,.28-.69,.19-1.25,.28-1.69,.28-1.88,0-2.82-1.69-2.82-5.08v-28.29c0-5.67-1.49-9.92-4.46-12.74-2.98-2.82-6.78-4.23-11.42-4.23-3.92,0-7.56,1.08-10.93,3.24-3.37,2.16-6.13,4.87-8.29,8.13l.56-9.26c.09-1.41-.55-2.12-1.93-2.12-.41,0-1.08,.27-2.02,.8-1.94,1.44-4.48,2.88-7.61,4.32-3.13,1.44-5.89,2.55-8.27,3.34-.91,.19-1.36,.8-1.36,1.83,0,.6,.18,1.14,.54,1.62,.36,.49,.82,.73,1.39,.73,.38,0,1.1-.31,2.16-.92,1.06-.61,1.93-.92,2.58-.92,1.28,0,1.93,1.14,1.93,3.43v31.02c0,3.38-.97,5.08-2.91,5.08-.44,0-1-.09-1.69-.28-.69-.19-1.28-.28-1.79-.28-.56,0-1.03,.2-1.39,.61-.36,.41-.54,.91-.54,1.5,0,.63,.22,1.15,.66,1.57,.44,.42,1.06,.63,1.88,.63,.56,0,2.15-.06,4.77-.19,2.62-.12,5-.19,7.17-.19s4.68,.06,7.28,.19c2.6,.12,4.18,.19,4.75,.19,.81,0,1.45-.21,1.9-.63,.45-.42,.68-.95,.68-1.57,0-.59-.18-1.1-.54-1.5-.36-.41-.85-.61-1.48-.61-.44,0-1.02,.09-1.74,.28-.72,.19-1.3,.28-1.74,.28-1.85,0-2.77-1.69-2.77-5.08v-30.31c4.07-4.64,8.3-6.96,12.69-6.96,3.07,0,5.41,.97,7.03,2.91,1.61,1.94,2.42,4.76,2.42,8.46v25.89c0,3.38-.97,5.08-2.91,5.08-.44,0-.99-.09-1.67-.28-.67-.19-1.26-.28-1.76-.28-.56,0-1.03,.2-1.39,.61-.36,.41-.54,.91-.54,1.5,0,.63,.21,1.15,.63,1.57s1.04,.63,1.86,.63c.56,0,2.15-.06,4.77-.19,2.62-.12,5-.19,7.17-.19s4.65,.06,7.28,.19c2.63,.12,4.21,.19,4.75,.19,.81,0,1.45-.21,1.9-.63,.45-.42,.68-.95,.68-1.57Z"/>
        <path class="cls-2" d="M140.35,149.3c-.55,0-2.07-.06-4.79-.19-2.6-.12-5.04-.19-7.24-.19s-4.53,.06-7.12,.19c-2.71,.13-4.24,.19-4.82,.19-1.08,0-1.95-.31-2.56-.93-.61-.61-.93-1.4-.93-2.28s.27-1.57,.79-2.17c.55-.62,1.29-.95,2.14-.95,.6,0,1.26,.1,2.03,.32,.73,.2,1.16,.25,1.4,.25,.47,0,1.91,0,1.91-4.08v-25.89c0-3.44-.74-6.07-2.19-7.82-1.43-1.72-3.47-2.55-6.26-2.55-3.98,0-7.91,2.13-11.69,6.33v29.93c0,2.7,.6,4.08,1.77,4.08,.24,0,.7-.04,1.49-.25,.81-.21,1.46-.31,1.99-.31,.91,0,1.68,.33,2.23,.95,.53,.6,.79,1.33,.79,2.17,0,.9-.35,1.7-1,2.31-.64,.6-1.51,.9-2.58,.9-.58,0-2.1-.06-4.79-.19-2.57-.12-5.01-.19-7.24-.19s-4.53,.06-7.12,.19c-2.71,.13-4.24,.19-4.82,.19-1.08,0-1.94-.31-2.57-.92-.63-.61-.96-1.4-.96-2.29,0-.84,.27-1.57,.79-2.17,.55-.62,1.29-.95,2.14-.95,.6,0,1.27,.1,2.05,.32,.75,.2,1.19,.25,1.43,.25,.47,0,1.91,0,1.91-4.08v-31.02c0-1.61-.31-2.43-.93-2.43-.27,0-.9,.1-2.09,.78-1.61,.92-2.25,1.05-2.66,1.05-.88,0-1.64-.39-2.19-1.13-.49-.66-.74-1.4-.74-2.22,0-1.48,.76-2.5,2.1-2.8,2.32-.77,5.05-1.87,8.12-3.28,3.06-1.41,5.56-2.83,7.44-4.22l.1-.07c1.13-.64,1.91-.93,2.51-.93,.96,0,1.72,.28,2.23,.83,.52,.56,.76,1.35,.69,2.35l-.36,5.93c1.87-2.2,4.06-4.11,6.55-5.71,3.52-2.26,7.37-3.4,11.47-3.4,4.88,0,8.95,1.52,12.11,4.5,3.17,3,4.78,7.53,4.78,13.46v28.29c0,4.08,1.37,4.08,1.82,4.08,.24,0,.68-.04,1.43-.25,.78-.21,1.44-.32,2-.32,.91,0,1.68,.33,2.23,.95,.53,.6,.79,1.33,.79,2.17,0,.9-.35,1.7-1,2.31-.64,.6-1.51,.9-2.58,.9Zm-12.03-2.38c2.23,0,4.7,.06,7.33,.19,2.65,.13,4.19,.19,4.7,.19,.56,0,.96-.12,1.22-.37,.25-.23,.36-.49,.36-.84s-.09-.62-.29-.84c-.11-.12-.3-.27-.73-.27-.38,0-.88,.08-1.48,.25-.78,.21-1.42,.32-1.95,.32-1.74,0-3.82-1.05-3.82-6.08v-28.29c0-5.36-1.4-9.4-4.15-12.01-2.77-2.62-6.38-3.96-10.73-3.96-3.7,0-7.2,1.04-10.39,3.08-3.23,2.08-5.93,4.71-8,7.84l-2.06,3.1,.79-12.97c.03-.42-.03-.72-.16-.86-.12-.13-.39-.2-.77-.2-.01,0-.36,.02-1.48,.64-1.98,1.46-4.59,2.94-7.74,4.39-3.15,1.45-5.97,2.59-8.38,3.38l-.11,.03c-.33,.07-.57,.17-.57,.85,0,.38,.11,.71,.34,1.02,.21,.29,.41,.32,.58,.32,.02,0,.4-.06,1.67-.78,1.23-.71,2.24-1.05,3.08-1.05,1.09,0,2.93,.58,2.93,4.43v31.02c0,5.02-2.13,6.08-3.91,6.08-.53,0-1.17-.1-1.96-.32-1-.27-1.74-.45-2.16,.03-.2,.22-.29,.49-.29,.84s.11,.62,.35,.85c.24,.24,.64,.35,1.19,.35s2.08-.06,4.72-.19c2.62-.12,5.05-.19,7.21-.19s4.73,.06,7.33,.19c2.59,.12,4.17,.19,4.7,.19s.96-.12,1.22-.37c.25-.23,.36-.49,.36-.84s-.09-.62-.29-.84c-.11-.12-.3-.27-.73-.27-.24,0-.7,.04-1.49,.25-.81,.21-1.46,.31-1.99,.31-1.72,0-3.77-1.05-3.77-6.08v-30.69l.25-.28c4.25-4.84,8.77-7.29,13.44-7.29,3.37,0,5.99,1.1,7.79,3.27,1.76,2.12,2.65,5.18,2.65,9.1v25.89c0,5.02-2.13,6.08-3.91,6.08-.54,0-1.17-.1-1.94-.32-.98-.27-1.71-.44-2.13,.03-.2,.22-.29,.49-.29,.84s.11,.63,.34,.87c.23,.23,.61,.34,1.15,.34s2.08-.06,4.72-.19c2.62-.12,5.05-.19,7.21-.19Z"/>
      </g>
      <g>
        <path class="cls-1" d="M188.92,129.85c-.44-.33-.99-.49-1.64-.49-.85,0-1.46,.41-1.83,1.22-1.44,2.91-3.51,5.36-6.2,7.33-2.69,1.97-5.86,2.96-9.49,2.96-5.04,0-9-2.15-11.87-6.46-2.87-4.31-4.3-9.72-4.3-16.24,0-5.61,1.06-10.21,3.2-13.82,2.13-3.6,5.2-5.4,9.21-5.4,1.69,0,3.08,.46,4.16,1.39,1.08,.92,1.9,2.04,2.47,3.34s1.12,2.6,1.67,3.9c.55,1.3,1.34,2.41,2.37,3.34,1.03,.92,2.37,1.39,3.99,1.39s3.16-.58,4.39-1.74c1.24-1.16,1.86-2.63,1.86-4.42,0-3.04-1.72-5.79-5.17-8.25-3.45-2.46-8.02-3.69-13.72-3.69-3.7,0-7.17,.65-10.41,1.95-3.24,1.3-6.06,3.15-8.46,5.55-2.4,2.4-4.29,5.42-5.69,9.07-1.39,3.65-2.09,7.7-2.09,12.15,0,8.21,2.16,14.69,6.49,19.43,4.32,4.75,9.87,7.12,16.64,7.12,10.53,0,18.67-5.45,24.44-16.35,.44-.88,.66-1.52,.66-1.93,0-.56-.22-1.01-.66-1.34Z"/>
        <path class="cls-2" d="M164.48,150.47c-7.03,0-12.87-2.5-17.38-7.45-4.48-4.92-6.75-11.68-6.75-20.11,0-4.55,.73-8.76,2.16-12.51,1.44-3.76,3.43-6.93,5.91-9.42,2.48-2.48,5.44-4.42,8.79-5.77,3.35-1.34,6.97-2.02,10.78-2.02,5.89,0,10.7,1.3,14.3,3.88,3.71,2.65,5.59,5.7,5.59,9.06,0,2.06-.73,3.8-2.17,5.15-1.42,1.33-3.13,2.01-5.08,2.01s-3.44-.55-4.66-1.64c-1.14-1.02-2.03-2.26-2.63-3.69-.55-1.3-1.1-2.59-1.66-3.89-.5-1.15-1.24-2.15-2.2-2.98-.9-.77-2.05-1.15-3.51-1.15-3.66,0-6.4,1.61-8.35,4.91-2.03,3.43-3.06,7.91-3.06,13.31,0,6.29,1.39,11.56,4.13,15.68,2.69,4.05,6.3,6.02,11.03,6.02,3.4,0,6.39-.93,8.9-2.77,2.55-1.87,4.53-4.21,5.9-6.97,.53-1.14,1.5-1.78,2.73-1.78,.88,0,1.63,.23,2.24,.69h0c.69,.52,1.06,1.26,1.06,2.14,0,.58-.24,1.33-.76,2.37-5.93,11.23-14.45,16.91-25.33,16.91Zm3.52-55.27c-3.55,0-6.93,.63-10.04,1.88-3.1,1.24-5.84,3.04-8.12,5.32-2.29,2.29-4.12,5.22-5.46,8.72-1.34,3.52-2.03,7.49-2.03,11.79,0,7.91,2.09,14.22,6.22,18.76,4.11,4.51,9.45,6.79,15.9,6.79,10.22,0,17.92-5.18,23.55-15.82,.52-1.03,.54-1.4,.54-1.46,0-.25-.07-.4-.26-.54-.26-.2-.6-.29-1.04-.29-.38,0-.68,.11-.93,.64-1.52,3.07-3.71,5.66-6.52,7.72-2.86,2.09-6.25,3.15-10.08,3.15-5.38,0-9.65-2.32-12.7-6.91-2.96-4.46-4.47-10.1-4.47-16.79,0-5.76,1.12-10.58,3.33-14.33,2.31-3.91,5.7-5.9,10.07-5.9,1.93,0,3.55,.55,4.81,1.63,1.19,1.02,2.11,2.26,2.73,3.7,.57,1.3,1.12,2.61,1.67,3.91,.49,1.16,1.2,2.16,2.12,2.98,.85,.76,1.94,1.13,3.33,1.13s2.66-.48,3.71-1.47c1.04-.97,1.54-2.18,1.54-3.69,0-2.72-1.55-5.15-4.75-7.43-3.26-2.32-7.68-3.5-13.14-3.5Z"/>
      </g>
      <g>
        <path class="cls-1" d="M218.6,94.21c-5.04,0-9.62,1.11-13.72,3.34-4.1,2.22-7.4,5.5-9.89,9.82-2.49,4.32-3.74,9.31-3.74,14.94,0,8.12,2.47,14.67,7.4,19.67s11.29,7.5,19.06,7.5c3.79,0,7.35-.66,10.67-1.97,3.32-1.32,6.23-3.16,8.72-5.52s4.46-5.33,5.9-8.91c1.44-3.57,2.16-7.5,2.16-11.79,0-8.08-2.48-14.62-7.43-19.6s-11.33-7.47-19.13-7.47Zm10.27,44.86c-2.21,3.78-5.44,5.66-9.7,5.66-3.2,0-5.94-1.13-8.25-3.38s-4-5.24-5.1-8.95c-1.1-3.71-1.64-7.93-1.64-12.67,0-6.36,1.11-11.43,3.34-15.2,2.22-3.78,5.44-5.66,9.63-5.66,3.2,0,5.95,1.14,8.27,3.41,2.32,2.27,4.03,5.26,5.12,8.98,1.1,3.71,1.65,7.92,1.65,12.62,0,6.36-1.1,11.43-3.31,15.2Z"/>
        <path class="cls-2" d="M217.71,150.47c-8.01,0-14.66-2.62-19.77-7.79-5.1-5.17-7.69-12.02-7.69-20.37,0-5.79,1.3-10.99,3.87-15.44,2.57-4.47,6.03-7.9,10.28-10.2,4.23-2.29,9.01-3.46,14.2-3.46,8.04,0,14.71,2.61,19.84,7.77,5.12,5.15,7.72,11.98,7.72,20.3,0,4.4-.75,8.49-2.23,12.17-1.49,3.69-3.55,6.8-6.14,9.26-2.57,2.44-5.61,4.37-9.04,5.73-3.42,1.36-7.14,2.04-11.04,2.04Zm.89-55.27c-4.85,0-9.31,1.08-13.25,3.22-3.92,2.12-7.12,5.3-9.5,9.44-2.39,4.15-3.6,9.01-3.6,14.45,0,7.8,2.39,14.19,7.11,18.97,4.72,4.78,10.89,7.2,18.34,7.2,3.65,0,7.11-.64,10.3-1.9,3.19-1.26,6.01-3.05,8.4-5.32,2.37-2.25,4.28-5.13,5.66-8.56,1.39-3.44,2.09-7.28,2.09-11.42,0-7.77-2.4-14.13-7.13-18.89-4.73-4.76-10.93-7.18-18.42-7.18Zm.56,50.52c-3.45,0-6.46-1.23-8.95-3.67-2.42-2.37-4.22-5.52-5.36-9.38-1.12-3.79-1.69-8.14-1.69-12.95,0-6.51,1.17-11.8,3.48-15.71,2.41-4.08,5.94-6.16,10.5-6.16,3.45,0,6.47,1.24,8.97,3.69,2.43,2.38,4.24,5.55,5.38,9.41,1.12,3.79,1.69,8.13,1.69,12.9,0,6.51-1.16,11.79-3.45,15.71h0c-2.39,4.09-5.95,6.16-10.57,6.16Zm-2.02-45.87c-3.85,0-6.72,1.69-8.77,5.17-2.12,3.6-3.2,8.55-3.2,14.7,0,4.61,.54,8.78,1.6,12.38,1.04,3.53,2.67,6.4,4.84,8.52,2.13,2.08,4.6,3.1,7.55,3.1,3.91,0,6.81-1.69,8.84-5.17h0c2.11-3.6,3.18-8.55,3.18-14.7,0-4.58-.54-8.73-1.6-12.33-1.04-3.53-2.68-6.4-4.86-8.55-2.14-2.1-4.62-3.12-7.57-3.12Z"/>
      </g>
      <g>
        <path class="cls-1" d="M247.43,106.85c.38,0,1.1-.31,2.16-.92,1.06-.61,1.93-.92,2.58-.92,1.28,0,1.93,1.14,1.93,3.43v31.02c0,3.38-.97,5.08-2.91,5.08-.44,0-1-.09-1.69-.28-.69-.19-1.28-.28-1.79-.28-.56,0-1.03,.2-1.39,.61-.36,.41-.54,.91-.54,1.5,0,.63,.22,1.15,.66,1.57,.44,.42,1.06,.63,1.88,.63,.56,0,2.16-.06,4.79-.19s5.04-.19,7.24-.19,4.59,.06,7.19,.19c2.6,.12,4.18,.19,4.75,.19,.81,0,1.42-.2,1.81-.61,.39-.41,.59-.94,.59-1.6,0-.59-.16-1.1-.49-1.5-.33-.41-.78-.61-1.34-.61-.5,0-1.1,.09-1.79,.28-.69,.19-1.25,.28-1.69,.28-1.85,0-2.77-1.69-2.77-5.08v-30.59c1.88-2.16,3.87-3.81,5.97-4.96,2.1-1.14,4.09-1.71,5.97-1.71,3.04,0,5.33,.96,6.88,2.89,1.55,1.93,2.33,4.75,2.33,8.48v25.89c0,3.38-.92,5.08-2.77,5.08-.44,0-1-.09-1.69-.28-.69-.19-1.29-.28-1.79-.28-.56,0-1.01,.2-1.34,.61-.33,.41-.49,.91-.49,1.5,0,.63,.2,1.15,.61,1.57s1.02,.63,1.83,.63c.56,0,2.15-.06,4.75-.19,2.6-.12,5-.19,7.19-.19s4.58,.06,7.17,.19c2.58,.12,4.16,.19,4.72,.19,.81,0,1.44-.21,1.88-.63,.44-.42,.66-.95,.66-1.57,0-.59-.18-1.1-.54-1.5-.36-.41-.82-.61-1.39-.61-.47,0-1.03,.09-1.69,.28-.66,.19-1.22,.28-1.69,.28-1.1,0-1.85-.45-2.26-1.34-.41-.89-.61-2.14-.61-3.74v-28.71c0-.81-.03-1.41-.09-1.79,1.91-2.16,4.01-3.83,6.3-5,2.29-1.17,4.42-1.76,6.39-1.76,2.76,0,4.89,.97,6.39,2.91,1.5,1.94,2.26,4.76,2.26,8.46v25.89c0,1.6-.2,2.84-.61,3.74-.41,.89-1.16,1.34-2.26,1.34-.47,0-1.03-.09-1.69-.28-.66-.19-1.22-.28-1.69-.28-.63,0-1.1,.2-1.43,.59-.33,.39-.49,.9-.49,1.53s.21,1.15,.63,1.57,1.04,.63,1.86,.63c.53,0,2.1-.06,4.7-.19,2.6-.12,4.98-.19,7.14-.19s4.65,.06,7.28,.19c2.63,.12,4.21,.19,4.75,.19,.85,0,1.5-.21,1.95-.63,.45-.42,.68-.95,.68-1.57,0-.59-.18-1.1-.54-1.5-.36-.41-.85-.61-1.48-.61-.44,0-1.02,.09-1.74,.28-.72,.19-1.3,.28-1.74,.28-1.88,0-2.82-1.69-2.82-5.08v-28.29c0-.76-.03-1.49-.08-2.2,1.84-2.05,4.1-3.97,6.1-5.06,2.1-1.14,4.09-1.71,5.97-1.71,3.04,0,5.33,.96,6.88,2.89,1.55,1.93,2.33,4.75,2.33,8.48v25.89c0,3.38-.92,5.08-2.77,5.08-.44,0-1-.09-1.69-.28-.69-.19-1.29-.28-1.79-.28-.56,0-1.01,.2-1.34,.61-.33,.41-.49,.91-.49,1.5,0,.63,.2,1.15,.61,1.57s1.02,.63,1.83,.63c.56,0,2.15-.06,4.75-.19,2.6-.12,5-.19,7.19-.19s4.58,.06,7.17,.19c2.58,.12,4.16,.19,4.72,.19,.81,0,1.44-.21,1.88-.63,.44-.42,.66-.95,.66-1.57,0-.59-.18-1.1-.54-1.5-.36-.41-.82-.61-1.39-.61-.47,0-1.03,.09-1.69,.28-.66,.19-1.22,.28-1.69,.28-1.1,0-1.85-.45-2.26-1.34-.41-.89-.61-2.14-.61-3.74v-28.71c0-.81-.03-1.41-.09-1.79,1.91-2.16,4.01-3.83,6.3-5,2.29-1.17,4.42-1.76,6.39-1.76,2.76,0,4.89,.97,6.39,2.91,1.5,1.94,2.26,4.76,2.26,8.46v25.89c0,1.6-.2,2.84-.61,3.74-.41,.89-1.16,1.34-2.26,1.34-.47,0-1.03-.09-1.69-.28-.66-.19-1.22-.28-1.69-.28-.63,0-1.1,.2-1.43,.59-.33,.39-.49,.9-.49,1.53s.21,1.15,.63,1.57,1.04,.63,1.86,.63c.53,0,2.1-.06,4.7-.19,2.6-.12,4.98-.19,7.14-.19s4.65,.06,7.28,.19c2.63,.12,4.21,.19,4.75,.19,.85,0,1.5-.21,1.95-.63,.45-.42,.68-.95,.68-1.57,0-.59-.18-1.1-.54-1.5-.36-.41-.85-.61-1.48-.61-.44,0-1.02,.09-1.74,.28-.72,.19-1.3,.28-1.74,.28-1.88,0-2.82-1.69-2.82-5.08v-28.29c0-5.64-1.45-9.88-4.35-12.71-2.9-2.83-6.48-4.25-10.74-4.25-3.73,0-7.33,1.07-10.81,3.2-3.48,2.13-6.3,4.76-8.46,7.89-.91-3.73-2.72-6.51-5.43-8.34-2.71-1.83-5.9-2.75-9.56-2.75s-7.14,1.05-10.41,3.15c-3.19,2.05-6.23,4.97-8.36,8-.68-2.84-1.92-5.14-3.72-6.9-2.9-2.83-6.48-4.25-10.74-4.25-3.73,0-7.33,1.07-10.81,3.2-3.48,2.13-6.3,4.76-8.46,7.89-.91-3.73-2.72-6.51-5.43-8.34-2.71-1.83-5.9-2.75-9.56-2.75s-7.14,1.05-10.41,3.15c-3.27,2.1-5.99,4.72-8.15,7.85l.56-8.88c.09-1.41-.55-2.12-1.93-2.12-.41,0-1.08,.27-2.02,.8-1.94,1.44-4.48,2.88-7.61,4.32-3.13,1.44-5.89,2.55-8.27,3.34-.91,.19-1.36,.8-1.36,1.83,0,.6,.18,1.14,.54,1.62,.36,.49,.82,.73,1.39,.73Z"/>
        <path class="cls-2" d="M407.21,149.3c-.55,0-2.07-.06-4.79-.19-2.6-.12-5.04-.19-7.24-.19s-4.52,.06-7.1,.19c-2.69,.13-4.2,.19-4.75,.19-1.09,0-1.95-.31-2.56-.93-.61-.61-.93-1.4-.93-2.28s.24-1.59,.73-2.17c.36-.43,1.04-.94,2.2-.94,.57,0,1.21,.1,1.97,.32,.57,.16,1.04,.24,1.42,.24,.88,0,1.18-.38,1.35-.75,.35-.76,.52-1.88,.52-3.32v-25.89c0-3.45-.69-6.09-2.05-7.85-1.32-1.7-3.15-2.53-5.6-2.53-1.8,0-3.8,.56-5.93,1.65-2.05,1.05-3.97,2.55-5.71,4.45,.03,.38,.05,.86,.05,1.45v28.71c0,1.45,.18,2.56,.52,3.32,.17,.37,.46,.75,1.35,.75,.38,0,.85-.08,1.42-.24,.76-.22,1.4-.32,1.97-.32,.85,0,1.58,.33,2.13,.95,.53,.6,.79,1.33,.79,2.17,0,.89-.33,1.69-.96,2.29-.63,.61-1.5,.92-2.57,.92-.58,0-2.1-.06-4.77-.19-2.56-.12-4.95-.19-7.12-.19s-4.57,.06-7.14,.19c-2.69,.13-4.22,.19-4.79,.19-1.09,0-1.95-.32-2.55-.94-.59-.61-.89-1.38-.89-2.27,0-.83,.24-1.54,.72-2.13,.52-.64,1.25-.98,2.12-.98,.6,0,1.27,.1,2.05,.32,.75,.2,1.19,.25,1.43,.25,1.18,0,1.77-1.37,1.77-4.08v-25.89c0-3.48-.71-6.12-2.1-7.86-1.36-1.69-3.36-2.52-6.11-2.52-1.7,0-3.55,.54-5.49,1.59-1.73,.94-3.78,2.63-5.55,4.54,.04,.63,.06,1.23,.06,1.84v28.29c0,4.08,1.37,4.08,1.82,4.08,.24,0,.7-.04,1.49-.25,.81-.21,1.46-.31,1.99-.31,.91,0,1.68,.33,2.23,.95,.53,.6,.79,1.33,.79,2.17,0,.9-.35,1.7-1,2.31-.64,.6-1.53,.9-2.63,.9-.55,0-2.07-.06-4.79-.19-2.6-.12-5.04-.19-7.24-.19s-4.52,.06-7.1,.19c-2.69,.13-4.2,.19-4.75,.19-1.09,0-1.95-.31-2.56-.93s-.93-1.4-.93-2.28,.24-1.59,.73-2.17c.36-.43,1.04-.94,2.2-.94,.57,0,1.21,.1,1.97,.32,.57,.16,1.04,.24,1.42,.24,.88,0,1.18-.38,1.35-.75,.35-.76,.52-1.88,.52-3.32v-25.89c0-3.45-.69-6.09-2.05-7.85-1.32-1.7-3.15-2.53-5.6-2.53-1.8,0-3.8,.56-5.93,1.65-2.05,1.05-3.97,2.55-5.71,4.45,.03,.38,.05,.86,.05,1.45v28.71c0,1.45,.18,2.56,.52,3.32,.17,.37,.46,.75,1.35,.75,.38,0,.85-.08,1.42-.24,.76-.22,1.4-.32,1.97-.32,.85,0,1.58,.33,2.13,.95,.53,.6,.79,1.33,.79,2.17,0,.89-.33,1.69-.96,2.29-.63,.61-1.5,.92-2.57,.92-.58,0-2.1-.06-4.77-.19-2.56-.12-4.95-.19-7.12-.19s-4.57,.06-7.14,.19c-2.69,.13-4.22,.19-4.79,.19-1.09,0-1.95-.32-2.55-.94-.59-.61-.89-1.38-.89-2.27,0-.83,.24-1.54,.72-2.13,.52-.64,1.25-.98,2.12-.98,.6,0,1.27,.1,2.05,.32,.75,.2,1.19,.25,1.43,.25,1.18,0,1.77-1.37,1.77-4.08v-25.89c0-3.48-.71-6.12-2.1-7.86-1.36-1.69-3.36-2.52-6.11-2.52-1.7,0-3.55,.54-5.49,1.59-1.89,1.03-3.73,2.53-5.45,4.46v30.22c0,2.7,.6,4.08,1.77,4.08,.24,0,.68-.04,1.43-.25,.78-.21,1.45-.32,2.05-.32,.86,0,1.6,.34,2.12,.98,.48,.59,.72,1.31,.72,2.13,0,.92-.29,1.69-.87,2.29-.59,.61-1.44,.92-2.53,.92-.58,0-2.1-.06-4.79-.19-2.57-.12-4.98-.19-7.14-.19s-4.59,.06-7.19,.19c-2.72,.13-4.26,.19-4.84,.19-1.08,0-1.94-.31-2.57-.92-.63-.61-.96-1.4-.96-2.29,0-.84,.27-1.57,.79-2.17,.55-.62,1.29-.95,2.14-.95,.6,0,1.27,.1,2.05,.32,.75,.2,1.19,.25,1.43,.25,.47,0,1.91,0,1.91-4.08v-31.02c0-1.61-.31-2.43-.93-2.43-.27,0-.9,.1-2.09,.78-1.61,.92-2.25,1.05-2.66,1.05-.88,0-1.64-.39-2.19-1.13-.49-.66-.74-1.4-.74-2.22,0-1.48,.76-2.5,2.1-2.8,2.32-.77,5.05-1.87,8.12-3.28,3.06-1.41,5.56-2.83,7.44-4.22l.1-.07c1.13-.64,1.91-.93,2.51-.93,.96,0,1.72,.28,2.23,.83,.52,.56,.76,1.35,.69,2.35l-.36,5.64c1.84-2.11,3.99-3.96,6.41-5.51,3.42-2.19,7.11-3.31,10.95-3.31s7.26,.98,10.12,2.92c2.41,1.63,4.17,3.97,5.26,6.98,2.05-2.54,4.58-4.74,7.55-6.56,3.62-2.22,7.43-3.34,11.33-3.34,4.51,0,8.36,1.53,11.44,4.54,1.49,1.46,2.64,3.29,3.41,5.44,2.09-2.57,4.72-4.94,7.43-6.67,3.42-2.19,7.11-3.31,10.95-3.31s7.26,.98,10.12,2.92c2.41,1.63,4.17,3.97,5.26,6.98,2.05-2.54,4.58-4.74,7.55-6.56,3.62-2.22,7.43-3.34,11.33-3.34,4.51,0,8.36,1.53,11.44,4.54,3.08,3.02,4.65,7.54,4.65,13.43v28.29c0,4.08,1.37,4.08,1.82,4.08,.24,0,.7-.04,1.49-.25,.81-.21,1.46-.31,1.99-.31,.91,0,1.68,.33,2.23,.95,.53,.6,.79,1.33,.79,2.17,0,.9-.35,1.7-1,2.31-.64,.6-1.53,.9-2.63,.9Zm-12.03-2.38c2.23,0,4.7,.06,7.33,.19,2.65,.13,4.19,.19,4.7,.19,.58,0,1.01-.12,1.27-.37,.25-.23,.36-.49,.36-.84s-.09-.62-.29-.84c-.11-.12-.3-.27-.73-.27-.24,0-.7,.04-1.49,.25-.81,.21-1.46,.31-1.99,.31-1.74,0-3.82-1.05-3.82-6.08v-28.29c0-5.33-1.36-9.37-4.05-12-2.73-2.67-6.01-3.97-10.04-3.97-3.52,0-6.98,1.03-10.29,3.05-3.34,2.05-6.09,4.61-8.16,7.61l-1.27,1.84-.53-2.17c-.84-3.46-2.53-6.07-5.02-7.75-2.53-1.71-5.56-2.58-9-2.58s-6.77,1.01-9.87,2.99c-3.05,1.96-6,4.78-8.08,7.74l-1.27,1.81-.52-2.15c-.64-2.64-1.79-4.8-3.45-6.42-2.73-2.67-6.01-3.97-10.04-3.97-3.52,0-6.98,1.03-10.29,3.05-3.34,2.05-6.09,4.61-8.16,7.61l-1.27,1.84-.53-2.17c-.84-3.46-2.53-6.07-5.02-7.75-2.53-1.71-5.56-2.58-9-2.58s-6.77,1.01-9.87,2.99c-3.15,2.02-5.79,4.57-7.87,7.57l-2.05,2.97,.79-12.48c.03-.41-.03-.72-.16-.85-.12-.13-.39-.2-.77-.2-.01,0-.36,.02-1.48,.64-1.98,1.46-4.59,2.94-7.74,4.39-3.15,1.45-5.97,2.59-8.38,3.38l-.11,.03c-.33,.07-.57,.17-.57,.85,0,.38,.11,.71,.34,1.02,.21,.28,.4,.32,.57,.32,.06,0,.45-.08,1.68-.78,1.23-.71,2.24-1.05,3.08-1.05,1.09,0,2.93,.58,2.93,4.43v31.02c0,5.02-2.13,6.08-3.91,6.08-.53,0-1.17-.1-1.96-.32-1-.27-1.74-.45-2.16,.03-.2,.22-.29,.49-.29,.84s.11,.62,.35,.85c.24,.24,.64,.35,1.19,.35s2.09-.06,4.75-.19c2.64-.12,5.09-.19,7.28-.19s4.63,.06,7.24,.19c2.59,.12,4.17,.19,4.7,.19,.36,0,.85-.05,1.09-.3,.13-.14,.31-.38,.31-.9,0-.37-.09-.65-.27-.88-.1-.12-.24-.24-.56-.24-.41,0-.92,.08-1.52,.25-.78,.21-1.42,.32-1.95,.32-1.72,0-3.77-1.05-3.77-6.08v-30.97l.25-.28c1.95-2.24,4.05-3.98,6.24-5.18,2.24-1.22,4.41-1.84,6.45-1.84,3.34,0,5.92,1.1,7.66,3.26,1.69,2.1,2.55,5.16,2.55,9.11v25.89c0,5.02-2.05,6.08-3.77,6.08-.53,0-1.17-.1-1.96-.32-.6-.16-1.11-.25-1.52-.25-.32,0-.46,.12-.56,.24-.18,.23-.27,.51-.27,.87s.1,.65,.33,.88c.21,.22,.58,.33,1.11,.33s2.08-.06,4.7-.19c2.6-.12,5.04-.19,7.24-.19s4.63,.06,7.21,.19c2.57,.12,4.14,.19,4.67,.19s.94-.12,1.19-.35c.24-.23,.35-.5,.35-.85s-.09-.62-.29-.84c-.4-.45-1.07-.31-2.05-.03-3.25,.93-4.61-.46-5.13-1.6-.47-1.03-.7-2.39-.7-4.15v-28.71c0-.94-.04-1.4-.08-1.62l-.08-.47,.31-.36c1.98-2.24,4.2-4,6.59-5.23,2.42-1.24,4.72-1.87,6.85-1.87,3.07,0,5.49,1.11,7.18,3.3,1.64,2.11,2.46,5.17,2.46,9.07v25.89c0,1.76-.23,3.11-.7,4.15-.52,1.14-1.88,2.54-5.13,1.6-.56-.16-1.04-.24-1.42-.24-.47,0-.62,.17-.67,.23-.17,.21-.26,.5-.26,.88,0,.36,.11,.63,.34,.87,.23,.23,.61,.34,1.15,.34,.5,0,2.07-.06,4.65-.19,2.6-.12,5.02-.19,7.19-.19s4.7,.06,7.33,.19c2.65,.13,4.19,.19,4.7,.19,.58,0,1.01-.12,1.27-.37,.25-.23,.36-.49,.36-.84s-.09-.62-.29-.84c-.11-.12-.3-.27-.73-.27-.24,0-.7,.04-1.49,.25-.81,.21-1.46,.31-1.99,.31-1.74,0-3.82-1.05-3.82-6.08v-28.29c0-.69-.03-1.39-.08-2.12l-.03-.42,.28-.32c2-2.24,4.32-4.16,6.37-5.27,2.24-1.22,4.41-1.84,6.45-1.84,3.34,0,5.92,1.1,7.66,3.26,1.69,2.1,2.55,5.16,2.55,9.11v25.89c0,5.02-2.05,6.08-3.77,6.08-.53,0-1.17-.1-1.96-.32-.6-.16-1.11-.25-1.52-.25-.32,0-.46,.12-.56,.24-.18,.23-.27,.51-.27,.87s.1,.65,.33,.88c.21,.22,.58,.33,1.11,.33s2.08-.06,4.7-.19c2.6-.12,5.04-.19,7.24-.19s4.63,.06,7.21,.19c2.57,.12,4.14,.19,4.67,.19s.94-.12,1.19-.35c.24-.23,.35-.5,.35-.85s-.09-.62-.29-.84c-.4-.45-1.07-.31-2.05-.03-3.25,.93-4.61-.46-5.13-1.6-.47-1.03-.7-2.39-.7-4.15v-28.71c0-.94-.04-1.4-.08-1.62l-.08-.47,.31-.36c1.98-2.24,4.2-4,6.59-5.23,2.42-1.24,4.72-1.87,6.85-1.87,3.07,0,5.49,1.11,7.18,3.3,1.64,2.11,2.46,5.17,2.46,9.07v25.89c0,1.76-.23,3.11-.7,4.15-.52,1.14-1.88,2.54-5.13,1.6-.56-.16-1.04-.24-1.42-.24-.47,0-.62,.17-.67,.23-.17,.21-.26,.5-.26,.88,0,.36,.11,.63,.34,.87,.23,.23,.61,.34,1.15,.34,.5,0,2.07-.06,4.65-.19,2.6-.12,5.02-.19,7.19-.19Z"/>
      </g>
      <g>
        <path class="cls-1" d="M435.67,94.21c-5.04,0-9.62,1.11-13.72,3.34-4.1,2.22-7.4,5.5-9.89,9.82-2.49,4.32-3.74,9.31-3.74,14.94,0,8.12,2.47,14.67,7.4,19.67s11.29,7.5,19.06,7.5c3.79,0,7.35-.66,10.67-1.97,3.32-1.32,6.23-3.16,8.72-5.52s4.46-5.33,5.9-8.91c1.44-3.57,2.16-7.5,2.16-11.79,0-8.08-2.48-14.62-7.43-19.6s-11.33-7.47-19.13-7.47Zm10.27,44.86c-2.21,3.78-5.44,5.66-9.7,5.66-3.2,0-5.94-1.13-8.25-3.38s-4-5.24-5.1-8.95c-1.1-3.71-1.64-7.93-1.64-12.67,0-6.36,1.11-11.43,3.34-15.2,2.22-3.78,5.44-5.66,9.63-5.66,3.2,0,5.95,1.14,8.27,3.41,2.32,2.27,4.03,5.26,5.12,8.98,1.1,3.71,1.65,7.92,1.65,12.62,0,6.36-1.1,11.43-3.31,15.2Z"/>
        <path class="cls-2" d="M434.77,150.47c-8.01,0-14.66-2.62-19.77-7.79-5.1-5.17-7.69-12.02-7.69-20.37,0-5.79,1.3-10.99,3.87-15.44,2.57-4.47,6.03-7.9,10.28-10.2,4.23-2.29,9.01-3.46,14.2-3.46,8.04,0,14.71,2.61,19.84,7.77,5.12,5.15,7.72,11.98,7.72,20.3,0,4.4-.75,8.49-2.23,12.17-1.49,3.69-3.55,6.8-6.14,9.26-2.57,2.44-5.61,4.37-9.04,5.73-3.42,1.36-7.14,2.04-11.04,2.04Zm.89-55.27c-4.85,0-9.31,1.08-13.25,3.22-3.92,2.12-7.12,5.3-9.5,9.44-2.39,4.15-3.6,9.01-3.6,14.45,0,7.8,2.39,14.19,7.11,18.97,4.72,4.78,10.89,7.2,18.34,7.2,3.65,0,7.11-.64,10.3-1.9,3.19-1.26,6.01-3.05,8.4-5.32,2.37-2.25,4.28-5.13,5.66-8.56,1.39-3.44,2.09-7.28,2.09-11.42,0-7.77-2.4-14.13-7.13-18.89-4.73-4.76-10.93-7.18-18.42-7.18Zm.56,50.52c-3.45,0-6.46-1.23-8.95-3.67-2.42-2.37-4.22-5.52-5.36-9.38-1.12-3.79-1.69-8.14-1.69-12.95,0-6.51,1.17-11.8,3.48-15.71,2.41-4.08,5.94-6.16,10.5-6.16,3.45,0,6.47,1.24,8.97,3.69,2.43,2.38,4.24,5.55,5.38,9.41,1.12,3.79,1.69,8.13,1.69,12.9,0,6.51-1.16,11.79-3.45,15.71h0c-2.39,4.09-5.95,6.16-10.57,6.16Zm-2.02-45.87c-3.85,0-6.72,1.69-8.77,5.17-2.12,3.6-3.2,8.55-3.2,14.7,0,4.61,.54,8.78,1.6,12.38,1.04,3.53,2.67,6.4,4.84,8.52,2.13,2.08,4.6,3.1,7.55,3.1,3.91,0,6.81-1.69,8.84-5.17h0c2.11-3.6,3.18-8.55,3.18-14.7,0-4.58-.54-8.73-1.6-12.33-1.04-3.53-2.68-6.4-4.86-8.55-2.14-2.1-4.62-3.12-7.57-3.12Z"/>
      </g>
      <g>
        <path class="cls-1" d="M464.49,106.85c.38,0,1.1-.31,2.16-.92,1.06-.61,1.93-.92,2.58-.92,1.28,0,1.93,1.14,1.93,3.43v31.02c0,3.38-.97,5.08-2.91,5.08-.44,0-1-.09-1.69-.28-.69-.19-1.28-.28-1.79-.28-.56,0-1.03,.2-1.39,.61-.36,.41-.54,.91-.54,1.5,0,.63,.22,1.15,.66,1.57,.44,.42,1.06,.63,1.88,.63,.56,0,2.15-.06,4.77-.19,2.62-.12,5-.19,7.17-.19s4.68,.06,7.28,.19c2.6,.12,4.18,.19,4.75,.19,.81,0,1.45-.21,1.9-.63,.45-.42,.68-.95,.68-1.57,0-.59-.18-1.1-.54-1.5-.36-.41-.85-.61-1.48-.61-.44,0-1.02,.09-1.74,.28-.72,.19-1.3,.28-1.74,.28-1.85,0-2.77-1.69-2.77-5.08v-30.31c4.07-4.64,8.3-6.96,12.69-6.96,3.07,0,5.41,.97,7.03,2.91,1.61,1.94,2.42,4.76,2.42,8.46v25.89c0,3.38-.97,5.08-2.91,5.08-.44,0-.99-.09-1.67-.28-.67-.19-1.26-.28-1.76-.28-.56,0-1.03,.2-1.39,.61-.36,.41-.54,.91-.54,1.5,0,.63,.21,1.15,.63,1.57s1.04,.63,1.86,.63c.56,0,2.15-.06,4.77-.19,2.62-.12,5-.19,7.17-.19,1.88,0,3.88,0,6.05-.03,3.29-.04,5.59-.09,7.7-.17,1.64-.06,3.02,.12,4.52-.05,2.96-.35,5.73-1.65,7.58-3.5,1.59-1.59,2.35-3.27,2.28-5.05-.07-1.78-.74-3.32-2.02-4.6-1.17-1.17-2.63-1.81-4.37-1.92-1.74-.11-3.26,.49-4.56,1.79-.85,.85-1.39,1.77-1.61,2.76-.23,.99-.43,1.96-.62,2.9-.19,.95-.62,1.79-1.35,2.49-.45,.44-.89,.76-1.7,.9-1.68,.29-3.1,.16-3.54,.16-.85,0-1.39-.24-1.64-.71-.21-.4-.33-1.15-.36-2.21v-29.52c0-5.67-1.49-9.92-4.46-12.74-2.98-2.82-6.78-4.23-11.42-4.23-3.92,0-7.56,1.08-10.93,3.24-3.37,2.16-6.13,4.87-8.29,8.13l.56-9.26c.09-1.41-.55-2.12-1.93-2.12-.41,0-1.08,.27-2.02,.8-1.94,1.44-4.48,2.88-7.61,4.32-3.13,1.44-5.89,2.55-8.27,3.34-.91,.19-1.36,.8-1.36,1.83,0,.6,.18,1.14,.54,1.62,.36,.49,.82,.73,1.39,.73Z"/>
        <path class="cls-2" d="M500.02,149.3c-1.08,0-1.95-.31-2.56-.93-.61-.61-.93-1.4-.93-2.28s.27-1.57,.79-2.17c.55-.62,1.29-.95,2.14-.95,.6,0,1.26,.1,2.03,.32,.73,.2,1.16,.25,1.4,.25,.47,0,1.91,0,1.91-4.08v-25.89c0-3.44-.74-6.07-2.19-7.82-1.43-1.72-3.47-2.55-6.26-2.55-3.98,0-7.91,2.13-11.69,6.33v29.93c0,2.7,.6,4.08,1.77,4.08,.24,0,.7-.04,1.49-.25,.81-.21,1.46-.31,1.99-.31,.91,0,1.68,.33,2.23,.95,.53,.6,.79,1.33,.79,2.17,0,.9-.35,1.7-1,2.31-.64,.6-1.51,.9-2.58,.9-.58,0-2.1-.06-4.79-.19-2.57-.12-5.01-.19-7.24-.19s-4.53,.06-7.12,.19c-2.71,.13-4.24,.19-4.82,.19-1.08,0-1.94-.31-2.57-.92-.63-.61-.96-1.4-.96-2.29,0-.84,.27-1.57,.79-2.17,.55-.62,1.29-.95,2.14-.95,.6,0,1.27,.1,2.05,.32,.75,.2,1.19,.25,1.43,.25,.47,0,1.91,0,1.91-4.08v-31.02c0-1.61-.31-2.43-.93-2.43-.27,0-.9,.1-2.09,.78-1.61,.92-2.25,1.05-2.66,1.05-.88,0-1.64-.39-2.19-1.13-.49-.66-.74-1.4-.74-2.22,0-1.48,.76-2.5,2.1-2.8,2.32-.77,5.05-1.87,8.12-3.28,3.06-1.41,5.56-2.83,7.44-4.22l.1-.07c1.13-.64,1.91-.93,2.51-.93,.96,0,1.72,.28,2.23,.83,.52,.56,.76,1.35,.69,2.35l-.36,5.93c1.87-2.2,4.06-4.11,6.55-5.71,3.52-2.26,7.37-3.4,11.47-3.4,4.88,0,8.95,1.52,12.11,4.5,3.17,3,4.78,7.53,4.78,13.46v29.52c.04,1.29,.21,1.67,.24,1.74,.03,.06,.23,.18,.76,.18,.09,0,.21,0,.37,.01,.6,.02,1.73,.07,3-.16,.54-.1,.8-.27,1.17-.63,.57-.55,.92-1.19,1.07-1.97,.19-.96,.4-1.93,.63-2.93,.27-1.17,.9-2.26,1.88-3.24,1.51-1.51,3.3-2.21,5.33-2.08,1.98,.12,3.67,.87,5.01,2.21,1.46,1.46,2.24,3.23,2.31,5.27,.08,2.06-.79,4.01-2.58,5.8-2.04,2.04-5.01,3.41-8.17,3.78-.95,.11-1.87,.09-2.75,.07-.59-.01-1.2-.03-1.85,0-2.08,.08-4.4,.13-7.73,.17-2.18,.03-4.18,.03-6.07,.03-2.14,0-4.53,.06-7.12,.19-2.71,.13-4.24,.19-4.82,.19Zm-.56-4.32c-.28,0-.47,.08-.64,.27-.2,.22-.29,.49-.29,.84s.11,.63,.34,.87c.23,.23,.61,.34,1.15,.34s2.08-.06,4.72-.19c2.62-.12,5.05-.19,7.21-.19,1.88,0,3.87,0,6.04-.03,3.31-.04,5.61-.09,7.68-.17,.69-.03,1.34-.01,1.97,0,.85,.02,1.65,.04,2.46-.05,2.72-.32,5.26-1.49,6.99-3.21,1.39-1.39,2.05-2.8,1.99-4.31-.06-1.54-.62-2.82-1.73-3.93-1-1-2.22-1.54-3.73-1.63-1.45-.08-2.69,.4-3.8,1.5-.71,.71-1.16,1.48-1.35,2.27-.23,.98-.43,1.94-.61,2.87-.23,1.18-.78,2.19-1.64,3.02-.59,.57-1.19,.99-2.22,1.17-1.48,.26-2.75,.21-3.42,.19-.12,0-.22,0-.29,0-1.54,0-2.23-.67-2.53-1.23-.29-.54-.44-1.38-.48-2.65v-29.55c0-5.36-1.4-9.4-4.15-12.01-2.77-2.62-6.38-3.96-10.73-3.96-3.7,0-7.2,1.04-10.39,3.08-3.23,2.08-5.93,4.71-8,7.84l-2.06,3.1,.79-12.97c.03-.42-.03-.72-.16-.86-.12-.13-.39-.2-.77-.2-.01,0-.36,.02-1.48,.64-1.98,1.46-4.59,2.94-7.74,4.39-3.15,1.45-5.97,2.59-8.38,3.38l-.11,.03c-.33,.07-.57,.17-.57,.85,0,.38,.11,.71,.34,1.02,.21,.28,.4,.32,.57,.32,.06,0,.45-.08,1.68-.78,1.23-.71,2.24-1.05,3.08-1.05,1.09,0,2.93,.58,2.93,4.43v31.02c0,5.02-2.13,6.08-3.91,6.08-.53,0-1.17-.1-1.96-.32-1-.27-1.74-.45-2.16,.03-.2,.22-.29,.49-.29,.84s.11,.62,.35,.85c.24,.24,.64,.35,1.19,.35s2.08-.06,4.72-.19c2.62-.12,5.05-.19,7.21-.19s4.73,.06,7.33,.19c2.59,.12,4.17,.19,4.7,.19s.96-.12,1.22-.37c.25-.23,.36-.49,.36-.84s-.09-.62-.29-.84c-.11-.12-.3-.27-.73-.27-.24,0-.7,.04-1.49,.25-.81,.21-1.46,.31-1.99,.31-1.72,0-3.77-1.05-3.77-6.08v-30.69l.25-.28c4.25-4.84,8.77-7.29,13.44-7.29,3.37,0,5.99,1.1,7.79,3.27,1.76,2.12,2.65,5.18,2.65,9.1v25.89c0,5.02-2.13,6.08-3.91,6.08-.54,0-1.17-.1-1.94-.32-.58-.16-1.09-.24-1.49-.24Z"/>
      </g>
    </g>
    <g>
      <g>
        <path class="cls-1" d="M455.83,57.68c-4.84-4.16-10.83-9.31-11.4-10.55,.69-1.76,9.4-8.47,15.2-12.94,11.06-8.52,12.49-9.85,11.78-10.95-.65-1-2.14-.49-12.27,4.25-3.88,1.81-8.27,3.87-11.82,5.28-4.73,1.89-6.08,1.88-6.44,1.78,.09-1.3,1.83-6.88,3.37-11.83,4.29-13.74,5.93-19.72,5.02-21.2-.17-.27-.42-.45-.72-.5-.86-.14-2.05-.34-10.27,18.05-3.37,7.53-6.56,15.18-7.46,17.34-1.29-.79-4.66-3.94-7.43-6.53-9.76-9.12-14.13-12.68-15.92-11.14-1.03,.88-.02,3.22,9.06,18,2.43,3.95,5.16,8.4,5.6,9.54-1.02,.96-6.88,3.74-11.63,5.99-14.13,6.69-16.18,8.11-15.86,9.5,.06,.27,.23,.5,.48,.65,1.37,.83,6.91-.47,19.63-3.89,5.11-1.38,10.88-2.93,12.18-2.93,.61,1.28,1.92,8.03,3.08,14.01,3.17,16.39,4.14,20.02,5.42,20.41,.09,.03,.18,.04,.26,.04,.19,0,.39-.06,.55-.19,1.09-.81,1.25-5.31,1.24-19.35,0-5.21-.01-11.58,.29-13.31,2.1,.7,10.44,5.2,16.65,8.54,13.5,7.27,15.15,8,15.87,7.76,.21-.07,.37-.21,.46-.4,.67-1.41-1.3-3.72-14.93-15.44Z"/>
        <path class="cls-2" d="M435.7,91.06c-.18,0-.37-.03-.55-.08-1.76-.54-2.48-2.42-6.12-21.18-.91-4.7-2.11-10.92-2.77-13.12-2.05,.34-7.29,1.75-11.25,2.82-15,4.04-18.82,4.74-20.41,3.78-.49-.29-.82-.75-.94-1.28-.48-2.12,.88-3.27,16.41-10.63,3.66-1.73,8.94-4.23,10.8-5.4-.9-1.71-3.25-5.54-5.2-8.7-10.01-16.3-10.52-17.86-8.86-19.28,2.38-2.04,6.2,.84,17.26,11.17,2.05,1.92,4.72,4.41,6.31,5.7,1.29-3.09,4.08-9.71,6.98-16.19C445.9-.41,447.15-.22,448.71,.04c.59,.1,1.09,.44,1.41,.96,1.06,1.71,.14,5.83-4.91,22.03-1.11,3.56-2.55,8.18-3.1,10.44,.83-.18,2.31-.61,4.85-1.62,3.52-1.4,7.9-3.45,11.76-5.26,10.57-4.94,12.35-5.7,13.53-3.88,1.26,1.94-.2,3.18-12.01,12.28-4.31,3.32-12.95,9.98-14.62,12.12,1.4,1.69,7.25,6.71,10.87,9.82h0c14.87,12.79,16.16,14.57,15.18,16.62-.21,.44-.58,.77-1.05,.93-1.12,.36-1.73,.2-16.65-7.83-5.26-2.83-12.21-6.57-15.32-7.99-.16,2.61-.16,7.84-.15,11.84,.02,16.12-.23,19.13-1.64,20.18-.34,.25-.73,.38-1.15,.38Zm-8.13-36.46l.27,.57c.62,1.3,1.65,6.48,3.15,14.25,1.97,10.16,3.68,18.66,4.69,19.6,.82-1.22,.81-10.39,.8-18.49,0-5.49-.01-11.68,.31-13.48l.2-1.14,1.1,.37c2.18,.73,10.29,5.1,16.8,8.61,9.07,4.88,13.79,7.36,14.97,7.65-.19-1.62-9.22-9.38-14.7-14.09h0c-7.6-6.53-11.09-9.66-11.66-10.89l-.18-.39,.16-.4c.67-1.71,5.75-5.84,15.52-13.37,5.39-4.16,10.96-8.45,11.51-9.61-.92-.09-6.26,2.4-10.96,4.6-3.89,1.82-8.3,3.88-11.87,5.3-5.56,2.22-6.69,1.92-7.07,1.82l-.8-.21,.06-.82c.09-1.32,1.47-5.83,3.42-12.06,2.51-8.04,5.94-19.05,5.12-20.38l-.12-.05c-.55,.24-2.56,2.84-9.11,17.48-3.34,7.47-6.54,15.15-7.44,17.32l-.45,1.08-1-.61c-1.38-.84-4.68-3.93-7.59-6.65-4.93-4.61-13.18-12.32-14.59-11.12-.25,1.09,4.43,8.86,9.26,16.72,3.05,4.96,5.24,8.56,5.68,9.7l.25,.63-.49,.46c-1.05,.99-5.59,3.18-11.88,6.16-5.44,2.58-15.55,7.37-15.33,8.39,1.29,.74,11.45-1.99,18.88-3.99,6.65-1.79,11.1-2.96,12.44-2.97h.63Z"/>
      </g>
      <g>
        <path class="cls-1" d="M260.77,51.92c.19-.23,.25-.53,.18-.81-.33-1.3-3.91-2.42-20.15-6.31-5.93-1.42-12.61-3.02-13.86-3.69,.06-1.3,1.86-7,3.46-12.05,3.98-12.56,5.52-18.03,4.75-19.44-.14-.26-.36-.44-.63-.51-1.38-.37-2.88,1.6-10.19,15.43-2.46,4.65-5.49,10.38-6.49,11.36-1.12-.5-5.45-3.42-9.29-6.02-14.37-9.71-16.66-10.82-17.58-9.84h0c-.97,1.03-.21,3.02,2.62,6.86,2.14,2.9,5.15,6.43,7.82,9.54,2.46,2.88,5.46,6.39,6.19,7.71-2.21,.8-9.99,3.65-17.65,6.69-18.73,7.41-18.59,8.6-18.48,9.47,.04,.3,.2,.56,.46,.74,1.44,.98,7.49-.4,21.4-4.08,5.02-1.33,10.67-2.82,11.97-2.85,.08,.37,.03,1.71-2.06,6.36-1.57,3.48-3.81,7.78-5.79,11.57-5.17,9.91-5.75,11.38-4.78,12.07,1.06,.76,2.46-.61,11.46-11.29,4.72-5.6,11.81-14.01,13.59-14.62,1.21,.63,6.1,6.84,10.04,11.85,10.81,13.75,13.2,16.08,14.65,15.64,.04-.01,.08-.03,.12-.04,.2-.08,.35-.24,.42-.44,.27-.71-.39-2.39-7.06-16.19-3.07-6.35-7.19-14.88-7.8-17.01,1.73-.23,8.1,.06,13.31,.29,14.03,.63,18.53,.66,19.38-.39Z"/>
        <path class="cls-2" d="M241.99,86.77c-1.88,0-4.5-2.69-15.03-16.09-2.95-3.76-7.71-9.81-9.34-11.29-2.21,1.58-9.24,9.92-12.74,14.08-9.61,11.4-10.91,12.81-12.8,11.46-1.77-1.26-.92-3.01,4.47-13.35,1.97-3.78,4.21-8.07,5.77-11.52,1.12-2.48,1.61-3.94,1.83-4.77-2.28,.45-6.96,1.69-10.57,2.64-16.4,4.33-20.55,5.07-22.22,3.94-.51-.34-.82-.86-.9-1.45-.19-1.58-.34-2.82,19.11-10.52,6.61-2.62,13.35-5.11,16.48-6.26-1.22-1.65-3.58-4.41-5.41-6.55-2.68-3.13-5.71-6.67-7.87-9.6-2.76-3.75-4.15-6.42-2.54-8.13,1.49-1.59,3.03-1.02,18.87,9.69,3.1,2.1,6.8,4.6,8.47,5.57,1.25-1.81,3.98-6.98,5.87-10.55,8.03-15.19,9.23-16.5,11.34-15.93,.53,.14,.97,.5,1.24,.99,.89,1.63,.02,5.41-4.67,20.22-1.24,3.91-2.88,9.09-3.31,11.12,2.17,.75,8.34,2.23,12.99,3.34,18.58,4.45,20.43,5.25,20.88,7.03,.15,.59,.02,1.21-.37,1.69h0c-1.11,1.37-4.14,1.48-20.2,.76-4.01-.18-9.25-.42-11.87-.37,1.27,3.17,4.7,10.26,7.3,15.63,7.38,15.28,7.52,15.89,7.1,17-.17,.46-.52,.82-.97,1.01-.07,.03-.14,.06-.21,.08-.23,.07-.46,.11-.7,.11Zm-24.21-29.64l.38,.19c1.2,.62,4.17,4.24,10.36,12.12,4.49,5.71,11.92,15.17,13.46,15.31-.17-.99-2.44-5.83-7.02-15.29-3.23-6.68-7.23-14.96-7.86-17.17l-.32-1.12,1.15-.15c1.82-.24,8.02,.04,13.48,.28,8.11,.37,17.29,.78,18.52,0-.8-1.02-9.25-3.11-19.38-5.54-7.69-1.84-12.83-3.1-14.1-3.78l-.56-.3,.03-.63c.06-1.34,1.43-5.74,3.51-12.3,2.32-7.33,5.5-17.37,4.83-18.66-1.03-.27-6.25,9.6-9.05,14.91-3.26,6.16-5.64,10.6-6.68,11.61l-.48,.47-.62-.27c-1.12-.49-4.6-2.83-9.39-6.07-7.69-5.2-15.22-10.22-16.4-9.99-.24,.29-.28,1.43,2.75,5.55,2.12,2.88,5.12,6.39,7.77,9.48,2.6,3.03,5.53,6.46,6.31,7.87l.57,1.02-1.1,.4c-2.21,.8-10.01,3.66-17.63,6.68-14.92,5.9-17.6,7.79-17.88,8.39,1.35,.94,12.5-2.01,20.64-4.16,6.31-1.67,10.88-2.85,12.2-2.88l.83-.02,.17,.81c.08,.38,.33,1.53-2.13,6.98-1.58,3.5-3.83,7.82-5.82,11.62-2.35,4.51-5.01,9.59-5.06,10.74,1.21-.54,5.72-5.89,10.09-11.07,7.95-9.43,12.3-14.33,14.03-14.92l.4-.14Z"/>
      </g>
    </g>
  </g>
</svg>