<?xml version="1.0" encoding="UTF-8"?>
<svg id="Layer_2" data-name="Layer 2" xmlns="http://www.w3.org/2000/svg" viewBox="0 0 133.87 209.72">
  <defs>
    <style>
      .cls-1 {
        fill: #231f20;
      }
    </style>
  </defs>
  <g id="Layer_1-2" data-name="Layer 1">
    <g>
      <path class="cls-1" d="M85.65,164.42c-6.77-5.82-15.15-13.03-15.95-14.76,.96-2.46,13.15-11.85,21.27-18.11,15.48-11.93,17.48-13.79,16.49-15.32-.91-1.4-3-.68-17.17,5.94-5.43,2.54-11.58,5.41-16.53,7.39-6.62,2.64-8.5,2.63-9.01,2.49,.12-1.82,2.56-9.63,4.72-16.56,6-19.23,8.3-27.6,7.02-29.67-.23-.38-.59-.62-1.01-.69-1.21-.19-2.86-.47-14.37,25.26-4.71,10.54-9.18,21.24-10.43,24.27-1.8-1.1-6.52-5.51-10.4-9.13-13.66-12.76-19.77-17.75-22.28-15.59-1.44,1.23-.02,4.51,12.68,25.19,3.39,5.53,7.22,11.75,7.84,13.35-1.42,1.34-9.63,5.23-16.28,8.38C2.46,166.22-.4,168.2,.04,170.16c.08,.37,.32,.69,.67,.91,1.92,1.16,9.67-.66,27.47-5.45,7.16-1.93,15.22-4.1,17.05-4.1,.85,1.79,2.68,11.23,4.3,19.6,4.44,22.94,5.79,28.01,7.58,28.56,.12,.04,.25,.06,.37,.06,.27,0,.54-.09,.77-.26,1.52-1.13,1.75-7.43,1.73-27.07,0-7.29-.02-16.21,.41-18.62,2.94,.99,14.61,7.27,23.3,11.95,18.89,10.17,21.2,11.19,22.2,10.87,.29-.09,.52-.3,.65-.56,.93-1.97-1.83-5.21-20.89-21.6Z"/>
      <path class="cls-1" d="M133.57,59.95c.26-.32,.36-.74,.25-1.13-.47-1.82-5.47-3.38-28.2-8.83-8.29-1.99-17.64-4.23-19.4-5.16,.09-1.82,2.61-9.79,4.85-16.86,5.57-17.57,7.72-25.24,6.65-27.2-.2-.36-.51-.61-.88-.71-1.93-.52-4.03,2.24-14.26,21.59-3.44,6.5-7.68,14.53-9.08,15.89-1.57-.7-7.62-4.79-13-8.42-20.1-13.59-23.31-15.15-24.6-13.77h0c-1.35,1.44-.29,4.22,3.67,9.59,2.99,4.06,7.21,9,10.94,13.35,3.45,4.03,7.64,8.94,8.67,10.79-3.09,1.12-13.97,5.11-24.71,9.36-26.21,10.37-26.01,12.03-25.86,13.25,.05,.42,.28,.79,.65,1.04,2.01,1.37,10.48-.56,29.95-5.71,7.02-1.86,14.93-3.95,16.75-3.99,.11,.51,.04,2.4-2.89,8.89-2.19,4.86-5.34,10.88-8.11,16.19-7.24,13.87-8.05,15.92-6.69,16.89,1.49,1.06,3.44-.86,16.03-15.8,6.61-7.84,16.52-19.6,19.02-20.45,1.7,.88,8.53,9.57,14.05,16.59,15.13,19.24,18.48,22.5,20.5,21.88,.06-.02,.11-.04,.16-.06,.27-.12,.48-.34,.59-.62,.37-.99-.55-3.34-9.88-22.66-4.29-8.89-10.06-20.82-10.92-23.8,2.43-.32,11.34,.08,18.62,.41,19.63,.88,25.93,.92,27.12-.54Z"/>
    </g>
  </g>
</svg>