<?xml version="1.0" encoding="UTF-8"?>
<svg id="Layer_2" data-name="Layer 2" xmlns="http://www.w3.org/2000/svg" viewBox="0 0 135.87 211.72">
  <defs>
    <style>
      .cls-1 {
        fill: #be1e2d;
      }

      .cls-2 {
        fill: #231f20;
      }
    </style>
  </defs>
  <g id="Layer_1-2" data-name="Layer 1">
    <g>
      <g>
        <path class="cls-1" d="M86.65,165.42c-6.77-5.82-15.15-13.03-15.95-14.76,.96-2.46,13.15-11.85,21.27-18.11,15.48-11.93,17.48-13.79,16.49-15.32-.91-1.4-3-.68-17.17,5.94-5.43,2.54-11.58,5.41-16.53,7.39-6.62,2.64-8.5,2.63-9.01,2.49,.12-1.82,2.56-9.63,4.72-16.56,6-19.23,8.3-27.6,7.02-29.67-.23-.38-.59-.62-1.01-.69-1.21-.19-2.86-.47-14.37,25.26-4.71,10.54-9.18,21.24-10.43,24.27-1.8-1.1-6.52-5.51-10.4-9.13-13.66-12.76-19.77-17.75-22.28-15.59-1.44,1.23-.02,4.51,12.68,25.19,3.39,5.53,7.22,11.75,7.84,13.35-1.42,1.34-9.63,5.23-16.28,8.38C3.46,167.22,.6,169.2,1.04,171.16c.08,.37,.32,.69,.67,.91,1.92,1.16,9.67-.66,27.47-5.45,7.16-1.93,15.22-4.1,17.05-4.1,.85,1.79,2.68,11.23,4.3,19.6,4.44,22.94,5.79,28.01,7.58,28.56,.12,.04,.25,.06,.37,.06,.27,0,.54-.09,.77-.26,1.52-1.13,1.75-7.43,1.73-27.07,0-7.29-.02-16.21,.41-18.62,2.94,.99,14.61,7.27,23.3,11.95,18.89,10.17,21.2,11.19,22.2,10.87,.29-.09,.52-.3,.65-.56,.93-1.97-1.83-5.21-20.89-21.6Z"/>
        <path class="cls-2" d="M58.49,211.72c-.22,0-.44-.03-.66-.1-2.24-.68-3.27-3.46-8.28-29.32-1.39-7.19-3.09-15.96-3.99-18.73-2.62,.37-10.05,2.37-16.12,4.01-19.57,5.27-26.02,6.69-28.25,5.34-.59-.35-.99-.9-1.13-1.54-.6-2.67,1.42-4.32,22.74-14.42,5.63-2.67,13.12-6.22,15.46-7.78-1.14-2.25-4.6-7.89-7.44-12.51-13.76-22.41-14.55-24.71-12.48-26.48,3.07-2.64,8.59,1.58,23.61,15.62,3.22,3.01,7.12,6.65,9.27,8.32,1.69-4.06,5.73-13.68,9.96-23.14,11.82-26.42,13.5-26.15,15.44-25.84,.71,.12,1.31,.53,1.7,1.16,1.49,2.41-.33,9.37-6.92,30.49-1.75,5.61-3.85,12.36-4.49,15.24,1.07-.17,3.24-.72,7.46-2.4,4.93-1.97,11.07-4.84,16.48-7.37,14.8-6.91,17.02-7.77,18.43-5.58,1.54,2.38-.44,4.11-16.72,16.66-6.67,5.14-18.77,14.46-20.72,17.28,1.65,2.17,9.88,9.25,15.45,14.04h0c20.47,17.59,22.38,20.17,21.15,22.79-.25,.52-.69,.91-1.24,1.09-1.38,.45-2.39,.16-22.99-10.94-7.68-4.14-17.89-9.63-21.98-11.42-.27,3.4-.26,10.95-.25,17.18,.03,22.12-.31,26.55-2.13,27.91-.4,.3-.88,.46-1.37,.46Zm-11.63-50.22l.27,.57c.84,1.77,2.35,9.33,4.38,19.83,3.1,16,5.4,27.35,6.89,27.8,.14,.01,.2,0,.26-.05,1.26-.94,1.34-11.48,1.33-26.27,0-7.66-.02-16.3,.42-18.8l.2-1.14,1.1,.37c3.01,1.01,14.34,7.11,23.43,12.01,14.12,7.6,20.55,10.95,21.44,10.8,.81-1.65-6.31-8.18-20.59-20.46h0c-8.97-7.71-15.38-13.31-16.21-15.1l-.18-.39,.16-.4c.98-2.51,10.35-9.88,21.58-18.53,10.21-7.87,16.86-13.09,16.27-13.99-.53-.81-6.64,1.97-15.91,6.3-5.44,2.54-11.6,5.42-16.59,7.41-5.08,2.03-8.32,2.88-9.64,2.53l-.8-.21,.06-.82c.12-1.79,2.05-8.08,4.75-16.75,4.75-15.23,8.29-27.01,7.13-28.88-.08-.13-.19-.21-.32-.23-1.39-.21-5.87,8.08-13.3,24.68-4.7,10.5-9.16,21.21-10.42,24.25l-.45,1.08-1-.61c-1.89-1.16-6.49-5.46-10.56-9.26-10.24-9.57-18.88-17.34-20.95-15.57-1.09,.94,5.19,11.38,12.88,23.91,3.57,5.82,7.26,11.83,7.92,13.51l.25,.63-.49,.46c-1.43,1.34-8.03,4.53-16.52,8.55-14.63,6.93-21.99,10.71-21.66,12.18,.03,.13,.13,.22,.21,.27,1.72,1.04,13.11-1.9,26.7-5.56,8.99-2.42,15.49-4.13,17.31-4.14h.63Z"/>
      </g>
      <g>
        <path class="cls-1" d="M134.57,60.95c.26-.32,.36-.74,.25-1.13-.47-1.82-5.47-3.38-28.2-8.83-8.29-1.99-17.64-4.23-19.4-5.16,.09-1.82,2.61-9.79,4.85-16.86,5.57-17.57,7.72-25.24,6.65-27.2-.2-.36-.51-.61-.88-.71-1.93-.52-4.03,2.24-14.26,21.59-3.44,6.5-7.68,14.53-9.08,15.89-1.57-.7-7.62-4.79-13-8.42-20.1-13.59-23.31-15.15-24.6-13.77h0c-1.35,1.44-.29,4.22,3.67,9.59,2.99,4.06,7.21,9,10.94,13.35,3.45,4.03,7.64,8.94,8.67,10.79-3.09,1.12-13.97,5.11-24.71,9.36-26.21,10.37-26.01,12.03-25.86,13.25,.05,.42,.28,.79,.65,1.04,2.01,1.37,10.48-.56,29.95-5.71,7.02-1.86,14.93-3.95,16.75-3.99,.11,.51,.04,2.4-2.89,8.89-2.19,4.86-5.34,10.88-8.11,16.19-7.24,13.87-8.05,15.92-6.69,16.89,1.49,1.06,3.44-.86,16.03-15.8,6.61-7.84,16.52-19.6,19.02-20.45,1.7,.88,8.53,9.57,14.05,16.59,15.13,19.24,18.48,22.5,20.5,21.88,.06-.02,.11-.04,.16-.06,.27-.12,.48-.34,.59-.62,.37-.99-.55-3.34-9.88-22.66-4.29-8.89-10.06-20.82-10.92-23.8,2.43-.32,11.34,.08,18.62,.41,19.63,.88,25.93,.92,27.12-.54Z"/>
        <path class="cls-2" d="M108.35,109.3c-2.53,0-6.26-3.89-20.77-22.35-4.55-5.78-11.25-14.31-13.35-16.05-2.9,1.83-12.75,13.51-18.17,19.94-13.24,15.71-15.07,17.62-17.38,15.97-2.12-1.51-1.17-3.69,6.38-18.17,2.77-5.31,5.9-11.31,8.08-16.14,1.87-4.14,2.51-6.29,2.72-7.34-2.91,.51-9.76,2.32-15.42,3.82-21.39,5.65-28.42,7.16-30.76,5.57-.61-.41-.99-1.03-1.08-1.74-.23-1.96-.44-3.65,26.49-14.3,9.62-3.81,19.42-7.43,23.55-8.94-1.58-2.22-5.04-6.27-7.91-9.63-3.73-4.36-7.97-9.31-10.98-13.41-3.64-4.94-5.64-8.68-3.59-10.87,1.86-1.99,4.13-1.1,25.89,13.62,4.52,3.05,9.99,6.76,12.19,8,1.67-2.27,5.54-9.6,8.44-15.1C93.73,1.32,95.47-.63,98.12,.09c.64,.17,1.17,.6,1.49,1.2,1.25,2.29-.45,8.67-6.57,27.99-1.9,6-4.22,13.33-4.71,15.94,2.72,1.02,11.41,3.1,18.51,4.8,25.65,6.14,28.38,7.3,28.96,9.56,.18,.71,.02,1.44-.45,2.01h0c-1.43,1.76-5.88,1.9-27.95,.91-6.24-.28-13.79-.62-17.2-.5,1.61,4.16,6.65,14.6,10.44,22.44,10.19,21.09,10.44,22.11,9.92,23.46-.21,.54-.61,.96-1.14,1.19-.09,.04-.18,.07-.26,.09-.26,.08-.53,.13-.81,.13Zm-33.95-40.64l.38,.19c1.76,.91,7.06,7.55,14.37,16.85,11.3,14.38,17.73,22.07,19.43,21.55l.11-.08c.2-.86-2.88-7.44-9.85-21.87-4.5-9.32-10.1-20.9-10.98-23.96l-.32-1.12,1.15-.15c2.51-.33,11.16,.06,18.79,.4,14.78,.67,25.32,1.04,26.31-.17h0c.06-.08,.08-.16,.06-.25-.39-1.51-11.62-4.31-27.46-8.1-10.42-2.5-17.9-4.33-19.63-5.25l-.56-.3,.03-.63c.09-1.82,2.08-8.24,4.89-17.11,4.25-13.41,7.69-24.66,6.72-26.42-.05-.08-.13-.19-.26-.23-1.44-.39-5.55,6.79-13.11,21.1-4.4,8.31-7.87,14.78-9.27,16.14l-.48,.47-.62-.27c-1.65-.73-7.49-4.67-13.13-8.49-12.21-8.25-22.36-14.98-23.34-13.93-.9,.96,.33,3.68,3.74,8.32,2.97,4.04,7.18,8.96,10.89,13.29,3.61,4.22,7.71,9.01,8.78,10.95l.57,1.02-1.1,.4c-3.09,1.12-13.99,5.12-24.68,9.35-16.92,6.69-25.41,10.8-25.24,12.2,.02,.13,.09,.24,.22,.33,1.82,1.23,13.73-1.78,29.13-5.85,8.81-2.33,15.18-3.98,16.98-4.02l.83-.02,.17,.81c.29,1.33-.71,4.53-2.95,9.52-2.2,4.89-5.35,10.92-8.13,16.23-4.88,9.35-7.79,15.07-7,15.62,.87,.62,6.38-5.78,14.69-15.63,9.14-10.84,16.91-19.88,19.46-20.75l.4-.14Z"/>
      </g>
    </g>
  </g>
</svg>